#N canvas 711 127 960 885 10;
#X obj 53 23 tgl 17 0 empty empty On/Off -7 -7 0 10 -262144 -1 -1 1
1;
#X obj 104 25 nbx 3 17 30 300 0 1 empty empty BPM 0 -8 0 10 -262144
-1 -1 122 256;
#X obj 71 106 /;
#X obj 44 127 metro;
#X obj 44 148 i;
#X obj 74 148 + 1;
#X obj 12 854 dac~ 1 2;
#X obj 491 235 euklid 1 0 12 5 1 3 0;
#X obj 503 506 euklid 1 0 16 4 2 2 1;
#N canvas 280 200 301 295 kick 0;
#X obj 175 124 r \$0-trg-kck;
#X obj 225 145 del 2;
#X obj 175 187 line~;
#X obj 132 103 pow~ 6;
#X msg 175 145 0 1;
#X obj 12 159 phasor~;
#X obj 12 201 cos~;
#X obj 12 222 *~;
#X obj 62 76 r \$0-trg-kck;
#X obj 62 124 del 2;
#X msg 62 145 0;
#X obj 12 12 r \$0-trg-kck;
#X obj 12 33 del 2;
#X obj 12 75 line~;
#X obj 160 230 pow~ 4;
#X obj 12 180 -~ 0.25;
#X obj 12 138 +~ 50;
#X obj 140 15 inlet;
#X obj 140 36 s \$0-trg-kck;
#X obj 12 264 throw~ \$0-drums;
#X msg 12 54 1 \, 0 2;
#X obj 12 96 *~ 250;
#X obj 127 176 *~ 30;
#X msg 225 166 1 \, 0 4000;
#X connect 0 0 1 0;
#X connect 0 0 4 0;
#X connect 1 0 23 0;
#X connect 2 0 14 0;
#X connect 2 0 3 0;
#X connect 3 0 22 0;
#X connect 4 0 2 0;
#X connect 5 0 15 0;
#X connect 6 0 7 0;
#X connect 7 0 19 0;
#X connect 8 0 9 0;
#X connect 9 0 10 0;
#X connect 10 0 5 1;
#X connect 11 0 12 0;
#X connect 12 0 20 0;
#X connect 13 0 21 0;
#X connect 14 0 7 1;
#X connect 15 0 6 0;
#X connect 16 0 5 0;
#X connect 17 0 18 0;
#X connect 20 0 13 0;
#X connect 21 0 16 0;
#X connect 22 0 16 0;
#X connect 23 0 2 0;
#X restore 501 719 pd kick;
#N canvas 0 148 197 202 snare 0;
#X obj 12 84 line~;
#X obj 12 126 *~;
#X obj 98 49 noise~;
#X obj 98 70 bp~ 1000 14;
#X obj 98 112 clip~ -1 1;
#X obj 12 105 pow~ 6;
#X msg 12 63 1 \, 0 800;
#X obj 98 91 *~ 4;
#X obj 12 147 *~ 0.5;
#X obj 12 42 inlet;
#X obj 12 168 throw~ \$0-drums;
#X connect 0 0 5 0;
#X connect 1 0 8 0;
#X connect 2 0 3 0;
#X connect 3 0 7 0;
#X connect 4 0 1 1;
#X connect 5 0 1 0;
#X connect 6 0 0 0;
#X connect 7 0 4 0;
#X connect 8 0 10 0;
#X connect 9 0 6 0;
#X restore 643 706 pd snare;
#N canvas 412 260 303 575 maceta 0;
#N canvas 0 23 719 451 mct~ 0;
#X obj 12 237 phasor~;
#X obj 12 276 cos~;
#X obj 12 254 *~ 4;
#X obj 72 254 *~ 11;
#X obj 72 276 cos~;
#X obj 202 276 cos~;
#X obj 202 254 *~ 20;
#X obj 262 276 cos~;
#X obj 262 254 *~ 21;
#X obj 302 276 cos~;
#X obj 302 254 *~ 36;
#X obj 12 342 *~;
#X obj 72 342 *~;
#X obj 262 342 *~;
#X obj 474 342 +~ 0.5;
#X obj 12 359 *~;
#X msg 519 281 0;
#X obj 72 298 *~ 0.7;
#X obj 202 342 *~;
#X obj 132 276 cos~;
#X obj 132 254 *~ 16;
#X obj 132 342 *~;
#X obj 262 298 /~ 20;
#X obj 302 298 /~ 32;
#X obj 474 298 osc~;
#X obj 342 276 cos~;
#X obj 342 342 *~;
#X obj 342 254 *~ 96;
#X obj 381 259 /~ 10;
#X obj 27 320 pow~ 1;
#X obj 609 34 - 1;
#X obj 609 56 / 126;
#X msg 609 78 1 \$1;
#X obj 609 100 -;
#X obj 87 320 pow~ 2;
#X obj 609 298 dbtorms;
#X obj 147 320 pow~ 32;
#X obj 132 298 /~ 4;
#X obj 217 320 pow~ 4;
#X obj 202 298 /~ 8;
#X obj 342 298 /~ 20;
#X obj 277 320 pow~ 10;
#X obj 357 320 pow~ 20;
#X obj 474 320 /~ 16;
#X obj 12 403 outlet~;
#N canvas 4 23 507 447 env 0;
#X obj 163 73 unpack f f f;
#X obj 88 386 outlet~;
#X obj 163 259 -~;
#X obj 195 242 sig~ 1;
#X obj 195 264 -~;
#X obj 245 225 *~;
#X obj 163 281 *~;
#X obj 148 325 +~;
#X obj 163 303 /~;
#X obj 280 242 sig~ 1;
#X obj 280 264 -~;
#X obj 280 286 +~;
#X obj 88 198 sig~ 1;
#X obj 88 220 -~;
#X obj 88 242 *~;
#X obj 88 264 +~;
#X obj 131 247 *~;
#N canvas 0 22 234 183 <=~ 0;
#X obj 150 34 inlet~;
#X obj 45 34 inlet~;
#X obj 45 129 outlet~;
#N canvas 467 216 450 300 @hv_obj 0;
#X obj 217 60 inlet~;
#X obj 120 60 inlet~;
#X obj 170 183 outlet~;
#X connect 1 0 2 0;
#X restore 45 105 pd @hv_obj __and~f;
#X obj 150 83 sig~ 1;
#N canvas 715 101 191 233 @hv_obj 0;
#X obj 49 83 -~;
#X obj 50 109 clip~ -1e-37 0;
#X obj 49 32 inlet~;
#X obj 93 33 inlet~;
#X obj 50 174 outlet~;
#X obj 50 151 *~ 1e+37;
#X obj 49 58 min~;
#X obj 50 130 +~ 1e-37;
#X connect 0 0 1 0;
#X connect 1 0 7 0;
#X connect 2 0 6 0;
#X connect 2 0 0 1;
#X connect 3 0 6 1;
#X connect 5 0 4 0;
#X connect 6 0 0 0;
#X connect 7 0 5 0;
#X restore 45 57 pd @hv_obj __lte~f;
#X connect 0 0 5 1;
#X connect 1 0 5 0;
#X connect 3 0 2 0;
#X connect 4 0 3 1;
#X connect 5 0 3 0;
#X restore 363 247 pd <=~;
#N canvas 0 22 255 189 >=~ 0;
#X obj 150 34 inlet~;
#X obj 45 34 inlet~;
#X obj 45 129 outlet~;
#N canvas 467 216 290 220 @hv_obj 0;
#X obj 158 52 inlet~;
#X obj 61 52 inlet~;
#X obj 61 136 outlet~;
#X obj 61 100 *~;
#X connect 0 0 3 1;
#X connect 1 0 3 0;
#X connect 3 0 2 0;
#X restore 45 105 pd @hv_obj __and~f;
#X obj 150 83 sig~ 1;
#N canvas 249 541 148 189 @hv_obj 0;
#X obj 23 69 -~;
#X obj 23 94 clip~ -1e-37 0;
#X obj 23 18 inlet~;
#X obj 67 19 inlet~;
#X obj 23 159 outlet~;
#X obj 23 136 *~ 1e+37;
#X obj 23 44 min~;
#X obj 23 115 +~ 1e-37;
#X connect 0 0 1 0;
#X connect 1 0 7 0;
#X connect 2 0 6 0;
#X connect 3 0 6 1;
#X connect 3 0 0 1;
#X connect 5 0 4 0;
#X connect 6 0 0 0;
#X connect 7 0 5 0;
#X restore 45 57 pd @hv_obj __gte~f;
#X connect 0 0 5 1;
#X connect 1 0 5 0;
#X connect 3 0 2 0;
#X connect 4 0 3 1;
#X connect 5 0 3 0;
#X restore 413 252 pd >=~;
#X obj 446 230 sig~ 0;
#X obj 363 269 *~;
#X obj 348 308 sig~ 1;
#X obj 348 330 -~;
#X obj 88 286 *~;
#X obj 148 347 *~;
#X obj 88 364 +~;
#X obj 163 156 line~;
#X obj 103 161 line~;
#X obj 12 12 inlet list;
#N canvas 349 167 179 187 hv.vline 0;
#X obj 12 34 t a b;
#X msg 75 56 0;
#N canvas 274 138 292 165 dbl-pipe 0;
#X obj 22 22 inlet;
#X obj 82 22 inlet;
#X obj 182 22 inlet;
#X obj 22 64 pipe 0;
#X obj 82 64 pipe 0;
#X obj 22 86 outlet;
#X obj 82 86 outlet;
#X obj 132 64 pipe 0;
#X obj 132 86 outlet;
#X obj 132 22 inlet;
#X connect 0 0 3 0;
#X connect 0 0 4 0;
#X connect 1 0 4 0;
#X connect 2 0 3 1;
#X connect 2 0 4 1;
#X connect 2 0 7 1;
#X connect 3 0 5 0;
#X connect 4 0 6 0;
#X connect 7 0 8 0;
#X connect 9 0 7 0;
#X restore 12 100 pd dbl-pipe;
#X obj 12 78 unpack f f f f;
#X obj 12 122 pack f f f;
#X obj 12 12 inlet;
#X obj 12 144 outlet;
#X connect 0 0 3 0;
#X connect 0 1 1 0;
#X connect 1 0 2 3;
#X connect 2 0 4 0;
#X connect 2 1 4 1;
#X connect 2 2 4 2;
#X connect 3 0 2 0;
#X connect 3 1 2 1;
#X connect 3 2 2 2;
#X connect 3 3 2 3;
#X connect 4 0 6 0;
#X connect 5 0 0 0;
#X restore 12 34 pd hv.vline;
#X obj 12 56 t a b a;
#X obj 325 90 sig~;
#X msg 103 139 0 \, 1 \$1;
#X obj 178 225 samphold~;
#X obj 12 78 unpack f f f;
#X msg 229 110 -1 \, 0 1;
#X obj 229 132 line~;
#X obj 245 247 exp~;
#X obj 325 247 exp~;
#X obj 325 68 inlet curve;
#X obj 144 381 s~ \$0-env-mct;
#X obj 178 203 r~ \$0-env-mct;
#X connect 0 0 26 0;
#X connect 0 2 31 0;
#X connect 2 0 6 0;
#X connect 3 0 4 0;
#X connect 4 0 6 1;
#X connect 5 0 37 0;
#X connect 6 0 8 0;
#X connect 7 0 24 0;
#X connect 8 0 7 1;
#X connect 9 0 10 0;
#X connect 10 0 11 0;
#X connect 11 0 8 1;
#X connect 12 0 13 0;
#X connect 13 0 14 0;
#X connect 14 0 15 0;
#X connect 15 0 23 0;
#X connect 16 0 15 1;
#X connect 17 0 20 0;
#X connect 18 0 20 1;
#X connect 19 0 17 1;
#X connect 19 0 18 1;
#X connect 20 0 11 1;
#X connect 20 0 22 1;
#X connect 20 0 23 1;
#X connect 21 0 22 0;
#X connect 22 0 24 1;
#X connect 23 0 25 0;
#X connect 24 0 25 1;
#X connect 25 0 1 0;
#X connect 25 0 40 0;
#X connect 26 0 2 0;
#X connect 26 0 16 1;
#X connect 27 0 5 0;
#X connect 27 0 13 1;
#X connect 27 0 16 0;
#X connect 28 0 29 0;
#X connect 29 0 30 0;
#X connect 30 0 34 0;
#X connect 30 1 35 0;
#X connect 30 2 0 0;
#X connect 31 0 5 1;
#X connect 31 0 18 0;
#X connect 31 0 17 0;
#X connect 31 0 38 0;
#X connect 32 0 27 0;
#X connect 33 0 2 1;
#X connect 33 0 7 0;
#X connect 33 0 14 1;
#X connect 34 1 32 0;
#X connect 35 0 36 0;
#X connect 36 0 33 1;
#X connect 37 0 4 1;
#X connect 38 0 10 1;
#X connect 39 0 31 0;
#X connect 41 0 33 0;
#X restore 425 281 pd env;
#X obj 12 215 /~ 4;
#X obj 474 209 *~ 4;
#X obj 474 231 /~ 975;
#X obj 609 12 r \$0-vel-mct;
#X obj 160 90 clip 0 127;
#X obj 160 112 sel 0;
#X obj 187 134 t b f;
#X obj 187 178 s \$0-trg-mct;
#X obj 214 156 s \$0-vel-mct;
#X obj 425 95 r \$0-trg-mct;
#X obj 425 303 *~ 1;
#X obj 470 139 - 6;
#X obj 91 176 r \$0-trg-mct;
#X obj 470 117 * -32;
#X obj 91 198 del 3;
#X obj 425 161 pack f f;
#X obj 12 381 *~;
#X msg 609 342 \$1 1;
#X obj 609 320 pipe 2;
#X obj 609 364 line~;
#X msg 91 220 0;
#X msg 425 182 0 1 0 \, 1 1 -12 3 \, 0 5000 \$2 6;
#X obj 12 192 inlet~ freq;
#X obj 160 68 inlet velocity;
#X obj 609 276 + 97;
#X obj 519 237 r \$0-trg-mct;
#X obj 519 259 del 3;
#X obj 609 254 * -18;
#X connect 0 0 2 0;
#X connect 0 0 3 0;
#X connect 0 0 6 0;
#X connect 0 0 8 0;
#X connect 0 0 10 0;
#X connect 0 0 20 0;
#X connect 0 0 27 0;
#X connect 1 0 11 0;
#X connect 2 0 1 0;
#X connect 3 0 4 0;
#X connect 4 0 17 0;
#X connect 5 0 39 0;
#X connect 6 0 5 0;
#X connect 7 0 22 0;
#X connect 8 0 7 0;
#X connect 9 0 23 0;
#X connect 9 0 28 0;
#X connect 10 0 9 0;
#X connect 11 0 15 0;
#X connect 12 0 15 0;
#X connect 13 0 15 0;
#X connect 14 0 15 1;
#X connect 15 0 62 0;
#X connect 16 0 24 1;
#X connect 17 0 12 0;
#X connect 18 0 15 0;
#X connect 19 0 37 0;
#X connect 20 0 19 0;
#X connect 21 0 15 0;
#X connect 22 0 13 0;
#X connect 23 0 13 0;
#X connect 24 0 43 0;
#X connect 25 0 40 0;
#X connect 26 0 15 0;
#X connect 27 0 25 0;
#X connect 28 0 25 0;
#X connect 29 0 11 1;
#X connect 30 0 31 0;
#X connect 31 0 32 0;
#X connect 32 0 33 0;
#X connect 33 0 59 0;
#X connect 33 0 73 0;
#X connect 34 0 12 1;
#X connect 35 0 64 0;
#X connect 36 0 21 1;
#X connect 37 0 21 0;
#X connect 38 0 18 1;
#X connect 39 0 18 0;
#X connect 40 0 26 0;
#X connect 41 0 13 1;
#X connect 42 0 26 1;
#X connect 43 0 14 0;
#X connect 45 0 56 0;
#X connect 46 0 0 0;
#X connect 47 0 48 0;
#X connect 48 0 24 0;
#X connect 49 0 30 0;
#X connect 50 0 51 0;
#X connect 51 1 52 0;
#X connect 52 0 53 0;
#X connect 52 1 54 0;
#X connect 55 0 61 0;
#X connect 56 0 29 0;
#X connect 56 0 34 0;
#X connect 56 0 36 0;
#X connect 56 0 38 0;
#X connect 56 0 41 0;
#X connect 56 0 42 0;
#X connect 57 0 61 1;
#X connect 58 0 60 0;
#X connect 59 0 57 0;
#X connect 60 0 66 0;
#X connect 61 0 67 0;
#X connect 62 0 44 0;
#X connect 63 0 65 0;
#X connect 64 0 63 0;
#X connect 65 0 62 1;
#X connect 66 0 0 1;
#X connect 67 0 45 0;
#X connect 68 0 46 0;
#X connect 68 0 47 0;
#X connect 69 0 50 0;
#X connect 70 0 35 0;
#X connect 71 0 72 0;
#X connect 72 0 16 0;
#X connect 73 0 70 0;
#X restore 12 243 pd mct~;
#X obj 122 152 div 7;
#X obj 122 187 * 12;
#X obj 12 159 % 7;
#X obj 12 180 tabread \$0-scale;
#X obj 12 201 +;
#X obj 12 222 mtof;
#X obj 12 54 i;
#X obj 12 75 % 5;
#X obj 42 54 + 1;
#X obj 12 96 tabread \$0-melody;
#X obj 12 138 t f f;
#X obj 12 117 + 35;
#X obj 12 33 bang;
#X obj 12 12 inlet;
#X obj 51 219 inlet;
#X obj 12 363 +~;
#X obj 62 285 delwrite~ \$0-mct 225;
#X obj 62 307 delread~ \$0-mct 225;
#X obj 62 349 lop~ 1000;
#X obj 12 264 *~ 0.4;
#X obj 62 328 *~ 0.5;
#X obj 12 384 throw~ \$0-maceta;
#X connect 0 0 20 0;
#X connect 1 0 2 0;
#X connect 2 0 5 1;
#X connect 3 0 4 0;
#X connect 4 0 5 0;
#X connect 5 0 6 0;
#X connect 6 0 0 0;
#X connect 7 0 8 0;
#X connect 8 0 9 0;
#X connect 8 0 10 0;
#X connect 9 0 7 1;
#X connect 10 0 12 0;
#X connect 11 0 3 0;
#X connect 11 1 1 0;
#X connect 12 0 11 0;
#X connect 13 0 7 0;
#X connect 14 0 13 0;
#X connect 15 0 0 1;
#X connect 16 0 22 0;
#X connect 18 0 21 0;
#X connect 19 0 16 1;
#X connect 20 0 16 0;
#X connect 20 0 17 0;
#X connect 21 0 17 0;
#X connect 21 0 19 0;
#X restore 491 456 pd maceta;
#X msg 593 435 50;
#X msg 633 435 100;
#X obj 491 435 bang;
#X obj 44 169 s \$0-clock;
#X msg 71 85 15000 \$1;
#X obj 44 190 r \$0-clock;
#X obj 491 214 r \$0-clock;
#N canvas 0 23 228 485 bass 0;
#X obj 12 228 phasor~;
#X obj 12 319 cos~;
#X obj 12 382 *~;
#X msg 147 226 1 \, 0 300;
#X obj 147 247 line~;
#X obj 147 268 pow~ 3;
#X obj 123 136 div 7;
#X obj 123 171 * 12;
#X obj 13 143 % 7;
#X obj 13 164 tabread \$0-scale;
#X obj 13 185 +;
#X obj 13 206 mtof;
#X obj 13 38 i;
#X obj 13 59 % 5;
#X obj 43 38 + 1;
#X obj 13 80 tabread \$0-melody;
#X obj 13 122 t f f;
#X obj 13 101 + 14;
#X obj 12 249 -~ 0.25;
#X msg 96 214 0;
#X obj 68 263 cos~;
#X obj 68 284 *~;
#N canvas 0 23 437 326 hv-tanh 0;
#X obj 39 37 inlet~;
#X obj 39 67 clip~ -3 3;
#X obj 54 107 *~;
#X obj 39 277 outlet~;
#X obj 109 107 sig~ 27;
#X obj 54 147 +~;
#X obj 54 217 /~;
#X obj 39 247 *~;
#X obj 94 147 *~ 9;
#X obj 94 187 +~;
#X text 142 177 // http://www.musicdsp.org/showone.php?id=238;
#X text 140 198 // y = x * (27 + x^2) / (27 + 9*x^2);
#X text 144 152 // pade-approximation of tanh function;
#X connect 0 0 1 0;
#X connect 1 0 2 0;
#X connect 1 0 2 1;
#X connect 1 0 7 0;
#X connect 2 0 5 0;
#X connect 2 0 8 0;
#X connect 4 0 5 1;
#X connect 4 0 9 1;
#X connect 5 0 6 0;
#X connect 6 0 7 1;
#X connect 7 0 3 0;
#X connect 8 0 9 0;
#X connect 9 0 6 1;
#X restore 12 361 pd hv-tanh;
#X obj 12 424 throw~ \$0-M;
#X obj 13 12 inlet;
#X obj 12 403 *~ 0.5;
#X obj 68 305 *~ 0.2;
#X obj 12 340 *~ 1.7;
#X connect 0 0 18 0;
#X connect 1 0 27 0;
#X connect 2 0 25 0;
#X connect 3 0 4 0;
#X connect 4 0 5 0;
#X connect 5 0 2 1;
#X connect 5 0 21 1;
#X connect 6 0 7 0;
#X connect 7 0 10 1;
#X connect 8 0 9 0;
#X connect 9 0 10 0;
#X connect 10 0 11 0;
#X connect 11 0 0 0;
#X connect 12 0 13 0;
#X connect 13 0 14 0;
#X connect 13 0 15 0;
#X connect 14 0 12 1;
#X connect 15 0 17 0;
#X connect 16 0 8 0;
#X connect 16 1 6 0;
#X connect 17 0 16 0;
#X connect 18 0 1 0;
#X connect 18 0 20 0;
#X connect 19 0 0 1;
#X connect 20 0 21 0;
#X connect 21 0 26 0;
#X connect 22 0 2 0;
#X connect 24 0 12 0;
#X connect 24 0 19 0;
#X connect 24 0 3 0;
#X connect 25 0 23 0;
#X connect 26 0 1 0;
#X connect 27 0 22 0;
#X restore 726 440 pd bass;
#X obj 501 484 r \$0-clock;
#X obj 13 312 loadbang;
#X msg 13 333 0 2 4 5 7 9 11;
#X obj 13 354 array set \$0-scale;
#X obj 13 375 array define \$0-scale 7;
#X obj 130 302 array set \$0-melody;
#X obj 130 323 array define \$0-melody 5;
#X obj 420 271 vsl 15 128 0 1 0 0 \$0-macetavol empty Volume 0 -9 0
10 -262144 -1 -1 7100 1;
#X obj 420 539 vsl 15 128 0 1 0 0 \$0-drumsvol empty Volume 0 -9 0
10 -262144 -1 -1 3900 1;
#X obj 139 669 expr~ ($v1 + $v2) / 2;
#X obj 132 547 catch~ \$0-maceta;
#X obj 138 87 s \$0-bpm;
#X obj 245 706 r \$0-macetavol;
#X obj 136 702 *~;
#X obj 32 602 r \$0-drumsvol;
#X obj 17 633 *~;
#X obj 18 561 catch~ \$0-drums;
#N canvas 0 96 732 490 makemelody 0;
#X obj 30 62 r \$0-clock;
#X obj 251 239 pack f f f f f;
#X obj 206 98 f 0;
#X obj 23 103 expr $f2 + 1;
#X obj 320 105 t 0 b;
#X obj 447 85 loadbang;
#X obj 244 180 random;
#X obj 311 179 random;
#X obj 378 178 random;
#X obj 444 178 random;
#X obj 513 177 random;
#X obj 244 203 - 4;
#X obj 513 200 - 4;
#X obj 460 120 random 28;
#X obj 364 199 + 3;
#X obj 56 174 s \$0-changeup;
#X obj 320 71 r \$0-changeup;
#X msg 203 67 0;
#X floatatom 206 135 5 0 0 0 - - -, f 5;
#X obj 56 138 sel 32;
#X obj 261 66 loadbang;
#X obj 249 319 outlet notes;
#X connect 0 0 3 0;
#X connect 1 0 21 0;
#X connect 2 0 3 1;
#X connect 2 0 18 0;
#X connect 2 0 19 0;
#X connect 3 0 2 0;
#X connect 4 0 2 0;
#X connect 4 1 6 0;
#X connect 4 1 7 0;
#X connect 4 1 8 0;
#X connect 4 1 9 0;
#X connect 4 1 10 0;
#X connect 4 1 13 0;
#X connect 5 0 13 0;
#X connect 6 0 11 0;
#X connect 7 0 1 1;
#X connect 8 0 14 0;
#X connect 9 0 1 3;
#X connect 10 0 12 0;
#X connect 11 0 1 0;
#X connect 12 0 1 4;
#X connect 13 0 6 1;
#X connect 13 0 7 1;
#X connect 13 0 8 1;
#X connect 13 0 9 1;
#X connect 13 0 10 1;
#X connect 14 0 1 2;
#X connect 16 0 4 0;
#X connect 17 0 2 0;
#X connect 19 0 15 0;
#X connect 20 0 4 0;
#X restore 130 269 pd makemelody;
#X obj 148 620 euklid-delay;
#X obj 27 810 clip~ -1 1;
#X msg 336 431 1;
#X obj 276 399 loadbang;
#N canvas 0 96 450 250 (subpatch) 0;
#X array wave 100 float 3;
#A 0 -0.0706838 -0.0631842 -0.0568971 -0.0521424 -0.0502891 -0.0501477
-0.0518357 -0.0531214 -0.0542017 -0.0541688 -0.0528962 -0.0512688 -0.0491815
-0.0466942 -0.0436179 -0.0397513 -0.0349936 -0.0315778 -0.028297 -0.0268835
-0.0267569 -0.0282429 -0.030271 -0.0323962 -0.0337155 -0.0355223 -0.0378559
-0.039332 -0.0401249 -0.0392023 -0.0371356 -0.0339729 -0.0305237 -0.0266554
-0.0240418 -0.0212444 -0.0190667 -0.0170983 -0.0149776 -0.0127615 -0.0103844
-0.009116 -0.00900301 -0.00962477 -0.0100945 -0.0109937 -0.0117976
-0.0132161 -0.0137037 -0.013052 -0.0107222 -0.00620642 0.000370532
0.0082636 0.0159554 0.0223719 0.0256655 0.0269595 0.0254859 0.0228935
0.0203014 0.0181895 0.0164947 0.0157309 0.0996113 0.0988142 0.098354
0.0980503 0.0976028 0.0967859 0.0953473 0.0931003 0.0900517 0.0862898
0.0821542 0.0778284 0.0734277 0.0692106 0.0654575 0.0624527 0.0602915
0.0589292 0.0581318 0.0575833 0.0569542 0.0560079 0.0547119 0.053007
0.0509316 0.0485247 0.045934 0.0433625 0.0409872 0.0390874 0.0378003
0.0370594 0.0367172 0.036734 0.0369906 0.0373583;
#X coords 0 1 100 -1 200 140 1;
#X restore 731 725 graph;
#X obj 168 836 tabwrite~ wave;
#X obj 226 796 metro 100;
#X obj 267 768 bng 15 250 50 0 empty empty empty 17 7 0 10 -262144
-1 -1;
#X obj 67 767 *~ 0.5;
#X obj 9 718 *~ 0.5;
#X obj 17 786 +~;
#X obj 63 741 expr~ $v2 * (1 - abs($v1));
#X connect 0 0 3 0;
#X connect 1 0 16 0;
#X connect 1 0 31 0;
#X connect 2 0 3 1;
#X connect 3 0 4 0;
#X connect 4 0 5 0;
#X connect 4 0 15 0;
#X connect 5 0 4 1;
#X connect 7 0 12 0;
#X connect 7 0 14 0;
#X connect 7 1 13 0;
#X connect 7 1 14 0;
#X connect 7 2 19 0;
#X connect 8 0 9 0;
#X connect 8 1 9 0;
#X connect 8 1 10 0;
#X connect 12 0 11 1;
#X connect 13 0 11 1;
#X connect 14 0 11 0;
#X connect 16 0 2 0;
#X connect 18 0 7 0;
#X connect 20 0 8 0;
#X connect 21 0 22 0;
#X connect 22 0 23 0;
#X connect 29 0 33 0;
#X connect 30 0 38 0;
#X connect 30 0 29 0;
#X connect 32 0 33 1;
#X connect 33 0 49 1;
#X connect 34 0 35 1;
#X connect 35 0 47 0;
#X connect 35 0 49 0;
#X connect 36 0 35 0;
#X connect 37 0 25 0;
#X connect 38 0 29 1;
#X connect 39 0 6 0;
#X connect 39 0 6 1;
#X connect 39 0 43 0;
#X connect 40 0 27 0;
#X connect 40 0 28 0;
#X connect 41 0 40 0;
#X connect 44 0 43 0;
#X connect 45 0 44 0;
#X connect 46 0 48 1;
#X connect 47 0 48 0;
#X connect 48 0 39 0;
#X connect 49 0 46 0;
#X coords 0 885 1 884 185 435 0;
