#N canvas 0 96 450 300 10;
#X obj 391 118 r \$0-changeup;
#X msg 506 243 334;
#X obj 391 206 pack f 2000;
#X obj 391 172 + 50;
#X obj 389 145 random 200;
#X obj 524 118 loadbang;
#X obj 131 519 delwrite~ \$0-delay 1000;
#X obj 329 410 delread~ \$0-delay 1000;
#X obj 575 427 r \$0-bpm;
#X obj 392 456 expr~ $v1 * (0.9 - ($v2 / 500));
#X obj 387 342 line;
#X obj 117 105 inlet~;
#X obj 318 574 outlet~;
#X text 53 33 //Adaptive delay with feedback;
#X connect 0 0 4 0;
#X connect 1 0 10 2;
#X connect 2 0 10 0;
#X connect 3 0 2 0;
#X connect 4 0 3 0;
#X connect 5 0 4 0;
#X connect 5 0 1 0;
#X connect 7 0 9 0;
#X connect 7 0 12 0;
#X connect 8 0 9 1;
#X connect 9 0 6 0;
#X connect 10 0 7 0;
#X connect 11 0 6 0;
