#N canvas 702 420 450 300 10;
#X obj 63 124 arp;
#X obj 63 172 simplesynth;
#X obj 63 91 metro;
#X obj 63 57 tgl 15 0 empty empty empty 17 7 0 10 -262144 -1 -1 0 1
;
#X obj 62 205 output~;
#X obj 90 58 nbx 5 14 20 1000 0 0 empty empty empty 0 -8 0 10 -262144
-1 -1 20 256;
#X text 149 57 SID64iness;
#X text 103 88 this could be any bang-maker of your choosing;
#X text 222 134 the goods;
#X text 142 171 taken from J09.classicsynth.pd;
#X connect 0 0 1 0;
#X connect 1 0 4 0;
#X connect 1 0 4 1;
#X connect 2 0 0 0;
#X connect 3 0 2 0;
#X connect 5 0 2 1;
