#N canvas 0 96 1920 984 10;
#X obj 494 908 /;
#X obj 205 790 +~;
#X obj 205 768 *~ 0.9;
#X obj 262 768 *~ 0.1;
#X obj 262 746 pow~ 1.85;
#X obj 205 746 pow~ 6.7;
#X obj 390 630 noise~;
#X obj 190 918 *~;
#X obj 554 908 /;
#X obj 614 908 /;
#X obj 674 908 /;
#X obj 734 908 /;
#X obj 794 908 /;
#X obj 334 703 r \$0-vel-cym;
#X msg 334 725 1 \$1;
#X obj 334 747 -;
#X obj 334 813 + 100;
#X obj 334 835 dbtorms;
#X msg 334 857 \$1 1;
#X obj 334 879 line~;
#X obj 205 509 r \$0-trg-cym;
#N canvas 0 22 241 126 lowpass 0;
#X obj 12 93 outlet~;
#N canvas 674 187 405 205 @hv_obj 0;
#X obj 62 12 inlet~ b0;
#X obj 132 12 inlet~ b1;
#X obj 202 12 inlet~ b2;
#X obj 272 12 inlet~ a1;
#X obj 332 12 inlet~ a2;
#X obj 12 12 inlet~;
#N canvas 677 380 306 397 zeros 0;
#X obj 12 282 czero~;
#X obj 12 329 czero~;
#X obj 12 356 outlet~;
#X obj 75 356 outlet~;
#X obj 62 12 inlet~ b0;
#X obj 132 12 inlet~ b1;
#X obj 202 12 inlet~ b2;
#X obj 12 12 inlet~;
#X obj 47 89 *~ -1;
#X obj 47 111 *~ 0.5;
#X obj 132 117 *~;
#X obj 132 155 -~;
#X obj 187 138 *~ 4;
#X obj 187 116 *~;
#X obj 228 172 abs~;
#X obj 228 216 *~ 0.5;
#X obj 228 238 /~;
#N canvas 773 235 262 212 location 0;
#X obj 12 12 inlet~;
#X obj 62 12 inlet~;
#X obj 207 12 inlet~;
#X obj 12 174 outlet~;
#X obj 72 174 outlet~;
#X obj 132 174 outlet~;
#X obj 192 174 outlet~;
#N canvas 725 189 180 137 gte 0;
#X obj 117 12 inlet~;
#X obj 12 12 inlet~;
#X obj 12 100 outlet~;
#N canvas 758 270 144 76 @hv_obj 0;
#X obj 62 12 inlet~;
#X obj 12 12 inlet~;
#X obj 12 34 outlet~;
#X connect 1 0 2 0;
#X restore 12 78 pd @hv_obj __and~f;
#X obj 117 56 sig~ 1;
#N canvas 945 362 136 178 @hv_obj 0;
#X obj 12 56 -~;
#X obj 12 78 clip~ -1e-37 0;
#X obj 12 12 inlet~;
#X obj 62 12 inlet~;
#X obj 12 144 outlet~;
#X obj 12 122 *~ 1e+37;
#X obj 12 34 min~;
#X obj 12 100 +~ 1e-37;
#X connect 0 0 1 0;
#X connect 1 0 7 0;
#X connect 2 0 6 0;
#X connect 3 0 6 1;
#X connect 3 0 0 1;
#X connect 5 0 4 0;
#X connect 6 0 0 0;
#X connect 7 0 5 0;
#X restore 12 34 pd @hv_obj __gte~f;
#X connect 0 0 5 1;
#X connect 1 0 5 0;
#X connect 3 0 2 0;
#X connect 4 0 3 1;
#X connect 5 0 3 0;
#X restore 62 49 pd gte;
#N canvas 845 375 187 138 lte 0;
#X obj 117 12 inlet~;
#X obj 12 12 inlet~;
#X obj 12 100 outlet~;
#N canvas 467 216 140 82 @hv_obj 0;
#X obj 72 12 inlet~;
#X obj 12 12 inlet~;
#X obj 12 39 outlet~;
#X connect 1 0 2 0;
#X restore 12 78 pd @hv_obj __and~f;
#X obj 117 56 sig~ 1;
#N canvas 715 101 137 184 @hv_obj 0;
#X obj 12 56 -~;
#X obj 12 78 clip~ -1e-37 0;
#X obj 12 12 inlet~;
#X obj 62 12 inlet~;
#X obj 12 144 outlet~;
#X obj 12 122 *~ 1e+37;
#X obj 12 34 min~;
#X obj 12 100 +~ 1e-37;
#X connect 0 0 1 0;
#X connect 1 0 7 0;
#X connect 2 0 6 0;
#X connect 2 0 0 1;
#X connect 3 0 6 1;
#X connect 5 0 4 0;
#X connect 6 0 0 0;
#X connect 7 0 5 0;
#X restore 12 34 pd @hv_obj __lte~f;
#X connect 0 0 5 1;
#X connect 1 0 5 0;
#X connect 3 0 2 0;
#X connect 4 0 3 1;
#X connect 5 0 3 0;
#X restore 127 49 pd lte;
#X obj 12 152 +~;
#X obj 160 22 sig~ 0;
#X obj 147 125 *~;
#X obj 192 125 *~;
#X obj 132 152 -~;
#X obj 192 152 *~ -1;
#X connect 0 0 9 0;
#X connect 0 0 13 0;
#X connect 1 0 7 0;
#X connect 1 0 8 0;
#X connect 2 0 11 1;
#X connect 2 0 12 1;
#X connect 7 0 11 0;
#X connect 8 0 12 0;
#X connect 9 0 3 0;
#X connect 10 0 7 1;
#X connect 10 0 8 1;
#X connect 11 0 9 1;
#X connect 11 0 13 1;
#X connect 12 0 4 0;
#X connect 12 0 14 0;
#X connect 13 0 5 0;
#X connect 14 0 6 0;
#X restore 34 255 pd location;
#X obj 228 194 sqrt~;
#X obj 47 133 /~;
#X connect 0 0 1 0;
#X connect 0 1 1 1;
#X connect 1 0 2 0;
#X connect 1 1 3 0;
#X connect 4 0 13 0;
#X connect 4 0 16 1;
#X connect 4 0 19 1;
#X connect 5 0 8 0;
#X connect 5 0 10 1;
#X connect 5 0 10 0;
#X connect 6 0 13 1;
#X connect 7 0 0 0;
#X connect 8 0 9 0;
#X connect 9 0 19 0;
#X connect 10 0 11 0;
#X connect 11 0 14 0;
#X connect 11 0 17 1;
#X connect 12 0 11 1;
#X connect 13 0 12 0;
#X connect 14 0 18 0;
#X connect 15 0 16 0;
#X connect 16 0 17 2;
#X connect 17 0 0 2;
#X connect 17 1 0 3;
#X connect 17 2 1 2;
#X connect 17 3 1 3;
#X connect 18 0 15 0;
#X connect 19 0 17 0;
#X restore 12 86 pd zeros;
#X obj 12 49 *~;
#N canvas 744 202 254 278 poles 0;
#X obj 12 170 cpole~;
#X obj 12 217 cpole~;
#X obj 12 244 outlet~;
#X obj 12 12 inlet~;
#X obj 62 12 inlet~;
#X obj 112 12 inlet~ a1;
#X obj 182 12 inlet~ a2;
#N canvas 739 258 279 198 location 0;
#X obj 12 12 inlet~;
#X obj 127 12 inlet~;
#X obj 222 49 inlet~;
#X obj 12 155 outlet~;
#X obj 62 155 outlet~;
#X obj 112 155 outlet~;
#X obj 172 155 outlet~;
#N canvas 796 341 183 142 gte 0;
#X obj 117 12 inlet~;
#X obj 12 12 inlet~;
#X obj 12 100 outlet~;
#N canvas 679 326 140 75 @hv_obj 0;
#X obj 72 12 inlet~;
#X obj 12 12 inlet~;
#X obj 12 34 outlet~;
#X connect 1 0 2 0;
#X restore 12 78 pd @hv_obj __and~f;
#X obj 117 56 sig~ 1;
#N canvas 754 439 132 184 @hv_obj 0;
#X obj 12 56 -~;
#X obj 12 78 clip~ -1e-37 0;
#X obj 12 12 inlet~;
#X obj 62 12 inlet~;
#X obj 12 144 outlet~;
#X obj 12 122 *~ 1e+37;
#X obj 12 34 min~;
#X obj 12 100 +~ 1e-37;
#X connect 0 0 1 0;
#X connect 1 0 7 0;
#X connect 2 0 6 0;
#X connect 3 0 6 1;
#X connect 3 0 0 1;
#X connect 5 0 4 0;
#X connect 6 0 0 0;
#X connect 7 0 5 0;
#X restore 12 34 pd @hv_obj __gte~f;
#X connect 0 0 5 1;
#X connect 1 0 5 0;
#X connect 3 0 2 0;
#X connect 4 0 3 1;
#X connect 5 0 3 0;
#X restore 127 39 pd gte;
#N canvas 816 493 187 138 lte 0;
#X obj 117 12 inlet~;
#X obj 12 12 inlet~;
#X obj 12 100 outlet~;
#N canvas 467 216 142 76 @hv_obj 0;
#X obj 72 12 inlet~;
#X obj 12 12 inlet~;
#X obj 12 34 outlet~;
#X connect 1 0 2 0;
#X restore 12 78 pd @hv_obj __and~f;
#X obj 117 56 sig~ 1;
#N canvas 715 101 131 178 @hv_obj 0;
#X obj 12 56 -~;
#X obj 12 78 clip~ -1e-37 0;
#X obj 12 12 inlet~;
#X obj 62 12 inlet~;
#X obj 12 144 outlet~;
#X obj 12 122 *~ 1e+37;
#X obj 12 34 min~;
#X obj 12 100 +~ 1e-37;
#X connect 0 0 1 0;
#X connect 1 0 7 0;
#X connect 2 0 6 0;
#X connect 2 0 0 1;
#X connect 3 0 6 1;
#X connect 5 0 4 0;
#X connect 6 0 0 0;
#X connect 7 0 5 0;
#X restore 12 34 pd @hv_obj __lte~f;
#X connect 0 0 5 1;
#X connect 1 0 5 0;
#X connect 3 0 2 0;
#X connect 4 0 3 1;
#X connect 5 0 3 0;
#X restore 172 39 pd lte;
#X obj 12 83 +~;
#X obj 205 12 sig~ 0;
#X obj 127 66 *~;
#X obj 172 66 *~;
#X obj 112 133 -~;
#X obj 172 133 *~ -1;
#X connect 0 0 9 0;
#X connect 0 0 13 0;
#X connect 1 0 7 0;
#X connect 1 0 8 0;
#X connect 2 0 11 1;
#X connect 2 0 12 1;
#X connect 7 0 11 0;
#X connect 8 0 12 0;
#X connect 9 0 3 0;
#X connect 10 0 7 1;
#X connect 10 0 8 1;
#X connect 11 0 9 1;
#X connect 11 0 13 1;
#X connect 12 0 4 0;
#X connect 12 0 14 0;
#X connect 13 0 5 0;
#X connect 14 0 6 0;
#X restore 34 144 pd location;
#X obj 54 77 *~ 0.5;
#X obj 112 39 *~;
#X obj 112 61 +~;
#X obj 182 44 *~ 4;
#X obj 112 83 abs~;
#X obj 112 127 *~ 0.5;
#X obj 112 105 sqrt~;
#X connect 0 0 1 0;
#X connect 0 1 1 1;
#X connect 1 0 2 0;
#X connect 3 0 0 0;
#X connect 4 0 0 1;
#X connect 5 0 8 0;
#X connect 5 0 9 0;
#X connect 5 0 9 1;
#X connect 6 0 11 0;
#X connect 7 0 0 2;
#X connect 7 1 0 3;
#X connect 7 2 1 2;
#X connect 7 3 1 3;
#X connect 8 0 7 0;
#X connect 9 0 10 0;
#X connect 10 0 7 1;
#X connect 10 0 12 0;
#X connect 11 0 10 1;
#X connect 12 0 14 0;
#X connect 13 0 7 2;
#X connect 14 0 13 0;
#X restore 12 133 pd poles;
#X obj 12 160 outlet~;
#X obj 272 116 *~ -1;
#X obj 332 116 *~ -1;
#X connect 0 0 6 1;
#X connect 0 0 7 1;
#X connect 1 0 6 2;
#X connect 2 0 6 3;
#X connect 3 0 10 0;
#X connect 4 0 11 0;
#X connect 5 0 7 0;
#X connect 6 0 8 0;
#X connect 6 1 8 1;
#X connect 7 0 6 0;
#X connect 8 0 9 0;
#X connect 10 0 8 2;
#X connect 11 0 8 3;
#X restore 12 71 pd @hv_obj biquad;
#X obj 62 12 inlet~ freq;
#X obj 161 12 inlet~ q;
#N canvas 533 23 706 367 lowpass.coeffs 0;
#X obj 137 12 inlet~ freq;
#X obj 298 50 inlet~ q;
#N canvas 78 244 261 257 hz2rad 0;
#X obj 27 56 samplerate~;
#X obj 27 34 loadbang;
#X obj 27 122 atan;
#X msg 27 100 1;
#X obj 27 144 * 8;
#X obj 27 78 t b a;
#X obj 27 166 / 44100;
#X obj 12 188 *~;
#X obj 12 210 outlet~ w(rad);
#X obj 12 12 inlet~ freq(Hz);
#X text 77 166 // 2 * pi / SR;
#X text 107 56 // w = 2 * pi * f / SR;
#X connect 0 0 5 0;
#X connect 1 0 0 0;
#X connect 2 0 4 0;
#X connect 3 0 2 0;
#X connect 4 0 6 0;
#X connect 5 0 3 0;
#X connect 5 1 6 1;
#X connect 6 0 7 1;
#X connect 7 0 8 0;
#X connect 9 0 7 0;
#X restore 137 55 pd hz2rad;
#X obj 137 34 clip~ 20 20000;
#X obj 137 77 /~ 6.28319;
#X obj 137 121 cos~;
#X obj 298 72 clip~ 0.1 100;
#X obj 283 94 sig~ 1;
#X obj 283 116 /~;
#X obj 207 121 cos~;
#X obj 283 138 *~;
#X obj 283 160 *~ 0.5;
#X obj 12 258 sig~ 1;
#X obj 12 280 /~;
#X obj 122 297 *~;
#X obj 137 275 *~ 0.5;
#X obj 122 319 outlet~ b0;
#X obj 192 297 *~;
#X obj 192 319 outlet~ b1;
#X obj 262 297 *~;
#X obj 262 319 outlet~ b2;
#X obj 347 297 *~;
#X obj 362 231 *~ -2;
#X obj 347 319 outlet~ a1;
#X obj 432 231 sig~ 1;
#X obj 432 253 -~;
#X obj 417 297 *~;
#X obj 417 319 outlet~ a2;
#X obj 57 263 +~ 1;
#X text 363 162 w0 = 2*pi*f0*Fs;
#X text 363 182 alpha = sin(w0)/(2*Q);
#X text 527 237 a2 = 1 - alpha;
#X text 527 217 a1 = -2*cos(w0);
#X text 392 72 H(z) = -----------------------------------------;
#X text 392 32 Audio-Cookbook:;
#X text 392 112 http://musicdsp.org/files/Audio-EQ-Cookbook.txt;
#X obj 137 231 sig~ 1;
#X obj 137 253 -~;
#X obj 207 231 sig~ 1;
#X obj 207 253 -~;
#X obj 277 275 *~ 0.5;
#X obj 277 231 sig~ 1;
#X obj 277 253 -~;
#X text 434 87 1 + (a1/a0)*z^(-1) + (a2/a0)*z^(-2);
#X text 434 57 (b0/a0) + (b1/a0)*z^(-1) + (b2/a0)*z^(-2);
#X text 527 197 a0 = 1 + alpha;
#X text 527 257 b0 = (1 - cos(w0))/2;
#X text 527 277 b1 = (1 - cos(w0));
#X text 527 297 b2 = (1 - cos(w0))/2;
#X text 517 177 LPF:;
#X obj 207 99 -~ 0.25;
#X connect 0 0 3 0;
#X connect 1 0 6 0;
#X connect 2 0 4 0;
#X connect 3 0 2 0;
#X connect 4 0 5 0;
#X connect 4 0 50 0;
#X connect 5 0 37 1;
#X connect 5 0 39 1;
#X connect 5 0 42 1;
#X connect 5 0 22 0;
#X connect 6 0 8 1;
#X connect 7 0 8 0;
#X connect 8 0 10 0;
#X connect 9 0 10 1;
#X connect 10 0 11 0;
#X connect 11 0 25 1;
#X connect 11 0 28 0;
#X connect 12 0 13 0;
#X connect 13 0 14 0;
#X connect 13 0 17 0;
#X connect 13 0 19 0;
#X connect 13 0 21 0;
#X connect 13 0 26 0;
#X connect 14 0 16 0;
#X connect 15 0 14 1;
#X connect 17 0 18 0;
#X connect 19 0 20 0;
#X connect 21 0 23 0;
#X connect 22 0 21 1;
#X connect 24 0 25 0;
#X connect 25 0 26 1;
#X connect 26 0 27 0;
#X connect 28 0 13 1;
#X connect 36 0 37 0;
#X connect 37 0 15 0;
#X connect 38 0 39 0;
#X connect 39 0 17 1;
#X connect 40 0 19 1;
#X connect 41 0 42 0;
#X connect 42 0 40 0;
#X connect 50 0 9 0;
#X restore 62 34 pd lowpass.coeffs;
#X obj 12 12 inlet~;
#X connect 1 0 0 0;
#X connect 2 0 4 0;
#X connect 3 0 4 1;
#X connect 4 0 1 1;
#X connect 4 1 1 2;
#X connect 4 2 1 3;
#X connect 4 3 1 4;
#X connect 4 4 1 5;
#X connect 5 0 1 0;
#X restore 51 901 pd lowpass;
#X obj 119 730 r \$0-vel-cym;
#X obj 119 818 pow;
#X msg 119 796 2 \$1;
#X obj 119 840 * 40;
#X msg 119 862 \$1 1;
#X obj 119 884 line~;
#X msg 159 774 1 \$1;
#X obj 159 796 -;
#X msg 159 862 \$1 1;
#X obj 159 884 line~;
#X obj 205 896 *~;
#X obj 334 791 * -9;
#X obj 334 769 pow 2;
#X obj 458 768 +~;
#X obj 458 746 *~ 0.9;
#X obj 515 746 *~ 0.1;
#X obj 515 724 pow~ 1.85;
#X obj 458 724 pow~ 6.7;
#X obj 458 812 *~;
#X obj 390 829 *~;
#X obj 205 812 pow~;
#X obj 307 795 + 1;
#X obj 307 773 * 3;
#X obj 583 619 r \$0-vel-cym;
#X msg 583 641 1 \$1;
#X obj 583 663 -;
#X obj 583 729 + 100;
#X obj 583 751 dbtorms;
#X msg 583 773 \$1 1;
#X obj 583 795 line~;
#X obj 119 752 * 4;
#X obj 119 774 + 5;
#X obj 390 807 hip~ 1000;
#X obj 390 935 clip~ -1 1;
#X obj 51 647 bp~ 3462 0.3;
#X obj 51 857 hip~ 1000;
#X obj 51 879 hip~ 1000;
#X obj 390 851 *~;
#N canvas 0 22 273 194 comb 0;
#X obj 12 11 inlet~;
#X obj 12 119 -~;
#X obj 12 146 outlet~;
#X obj 62 92 *~;
#X obj 148 75 clip~ 0 0.999;
#X obj 148 53 inlet~ feedback;
#X obj 148 26 block~ 1;
#X obj 62 65 vd~ \$0-del-1;
#X obj 62 11 inlet~ delay;
#X obj 78 136 delwrite~ \$0-del-1 100;
#X obj 62 38 min~ 100;
#X connect 0 0 1 0;
#X connect 1 0 2 0;
#X connect 1 0 9 0;
#X connect 3 0 1 1;
#X connect 4 0 3 1;
#X connect 5 0 4 0;
#X connect 7 0 3 0;
#X connect 8 0 10 0;
#X connect 10 0 7 0;
#X restore 475 952 pd comb;
#X obj 494 930 sig~;
#N canvas 0 22 273 194 comb 0;
#X obj 12 11 inlet~;
#X obj 12 119 -~;
#X obj 12 146 outlet~;
#X obj 62 92 *~;
#X obj 148 75 clip~ 0 0.999;
#X obj 148 53 inlet~ feedback;
#X obj 148 26 block~ 1;
#X obj 62 11 inlet~ delay;
#X obj 62 38 min~ 100;
#X obj 78 136 delwrite~ \$0-del-2 100;
#X obj 62 65 vd~ \$0-del-2;
#X connect 0 0 1 0;
#X connect 1 0 2 0;
#X connect 1 0 9 0;
#X connect 3 0 1 1;
#X connect 4 0 3 1;
#X connect 5 0 4 0;
#X connect 7 0 8 0;
#X connect 8 0 10 0;
#X connect 10 0 3 0;
#X restore 535 952 pd comb;
#X obj 554 930 sig~;
#N canvas 0 22 273 194 comb 0;
#X obj 12 11 inlet~;
#X obj 12 119 -~;
#X obj 12 146 outlet~;
#X obj 62 92 *~;
#X obj 148 75 clip~ 0 0.999;
#X obj 148 53 inlet~ feedback;
#X obj 148 26 block~ 1;
#X obj 62 11 inlet~ delay;
#X obj 62 38 min~ 100;
#X obj 78 136 delwrite~ \$0-del-3 100;
#X obj 62 65 vd~ \$0-del-3;
#X connect 0 0 1 0;
#X connect 1 0 2 0;
#X connect 1 0 9 0;
#X connect 3 0 1 1;
#X connect 4 0 3 1;
#X connect 5 0 4 0;
#X connect 7 0 8 0;
#X connect 8 0 10 0;
#X connect 10 0 3 0;
#X restore 595 952 pd comb;
#X obj 614 930 sig~;
#N canvas 0 22 273 194 comb 0;
#X obj 12 11 inlet~;
#X obj 12 119 -~;
#X obj 12 146 outlet~;
#X obj 62 92 *~;
#X obj 148 75 clip~ 0 0.999;
#X obj 148 53 inlet~ feedback;
#X obj 148 26 block~ 1;
#X obj 62 11 inlet~ delay;
#X obj 62 38 min~ 100;
#X obj 78 136 delwrite~ \$0-del-4 100;
#X obj 62 65 vd~ \$0-del-4;
#X connect 0 0 1 0;
#X connect 1 0 2 0;
#X connect 1 0 9 0;
#X connect 3 0 1 1;
#X connect 4 0 3 1;
#X connect 5 0 4 0;
#X connect 7 0 8 0;
#X connect 8 0 10 0;
#X connect 10 0 3 0;
#X restore 655 952 pd comb;
#X obj 674 930 sig~;
#N canvas 0 22 273 194 comb 0;
#X obj 12 11 inlet~;
#X obj 12 119 -~;
#X obj 12 146 outlet~;
#X obj 62 92 *~;
#X obj 148 75 clip~ 0 0.999;
#X obj 148 53 inlet~ feedback;
#X obj 148 26 block~ 1;
#X obj 62 11 inlet~ delay;
#X obj 62 38 min~ 100;
#X obj 78 136 delwrite~ \$0-del-5 100;
#X obj 62 65 vd~ \$0-del-5;
#X connect 0 0 1 0;
#X connect 1 0 2 0;
#X connect 1 0 9 0;
#X connect 3 0 1 1;
#X connect 4 0 3 1;
#X connect 5 0 4 0;
#X connect 7 0 8 0;
#X connect 8 0 10 0;
#X connect 10 0 3 0;
#X restore 715 952 pd comb;
#X obj 734 930 sig~;
#N canvas 0 22 273 194 comb 0;
#X obj 12 11 inlet~;
#X obj 12 119 -~;
#X obj 12 146 outlet~;
#X obj 62 92 *~;
#X obj 148 75 clip~ 0 0.999;
#X obj 148 53 inlet~ feedback;
#X obj 148 26 block~ 1;
#X obj 62 11 inlet~ delay;
#X obj 62 38 min~ 100;
#X obj 78 136 delwrite~ \$0-del-6 100;
#X obj 62 65 vd~ \$0-del-6;
#X connect 0 0 1 0;
#X connect 1 0 2 0;
#X connect 1 0 9 0;
#X connect 3 0 1 1;
#X connect 4 0 3 1;
#X connect 5 0 4 0;
#X connect 7 0 8 0;
#X connect 8 0 10 0;
#X connect 10 0 3 0;
#X restore 775 952 pd comb;
#X obj 775 974 /~ 6;
#X obj 794 930 sig~;
#X msg 846 913 \$1 20;
#X obj 846 935 line~;
#X obj 639 724 / 127;
#X obj 639 746 pow 0.125;
#X obj 639 790 dbtorms;
#X obj 639 834 line~;
#X msg 639 812 \$1 10;
#X obj 639 768 * 91;
#X obj 846 825 / 127;
#X obj 846 869 * 0.099;
#X obj 846 891 + 0.9;
#X obj 846 847 sqrt;
#X obj 390 785 pow~ 8;
#X obj 75 702 / 127;
#X msg 75 746 2 \$1;
#X obj 75 768 pow;
#X obj 75 790 * 500;
#X obj 75 724 * 4;
#X obj 262 553 / 127;
#X obj 262 619 pow;
#X obj 262 531 r \$0-snd-cym-0;
#X msg 262 597 10 \$1;
#X obj 262 575 * 3;
#N canvas 633 38 388 273 hv.vline 0;
#X obj 12 12 inlet;
#X obj 69 116 unpack f f f;
#X obj 69 67 t a b;
#X msg 87 91 0;
#X text 120 92 Default to zero delay if 2 args supplied;
#X obj 12 225 outlet~;
#X obj 12 34 route stop;
#X msg 12 126 stop;
#X obj 12 56 t b b;
#X msg 25 94 clear;
#N canvas 274 138 360 214 dbl-pipe 0;
#X obj 65 42 inlet;
#X obj 125 42 inlet;
#X obj 185 42 inlet;
#X obj 65 84 pipe 0;
#X obj 125 84 pipe 0;
#X obj 65 106 outlet;
#X obj 125 106 outlet;
#X connect 0 0 3 0;
#X connect 0 0 4 0;
#X connect 1 0 4 0;
#X connect 2 0 3 1;
#X connect 2 0 4 1;
#X connect 3 0 5 0;
#X connect 4 0 6 0;
#X restore 69 144 pd dbl-pipe;
#X obj 69 168 pack f f;
#X obj 12 203 line~;
#X connect 0 0 6 0;
#X connect 1 0 10 0;
#X connect 1 1 10 1;
#X connect 1 2 10 2;
#X connect 2 0 1 0;
#X connect 2 1 3 0;
#X connect 3 0 10 2;
#X connect 6 0 8 0;
#X connect 6 1 2 0;
#X connect 7 0 12 0;
#X connect 8 0 7 0;
#X connect 8 1 9 0;
#X connect 9 0 10 0;
#X connect 9 0 10 1;
#X connect 10 0 11 0;
#X connect 10 1 11 1;
#X connect 11 0 12 0;
#X connect 12 0 5 0;
#X restore 205 724 pd hv.vline;
#X obj 262 641 + 2;
#X msg 205 702 1 \$2 \, 0 50 \$3;
#X obj 846 803 r \$0-snd-cym-1;
#X obj 75 680 r \$0-snd-cym-3;
#X obj 639 702 r \$0-snd-cym-2;
#X obj 355 536 / 127;
#X msg 355 602 2 \$1;
#X obj 355 624 pow;
#X obj 355 646 * 20;
#X obj 355 580 + 3;
#X obj 355 558 * 5;
#X obj 355 514 r \$0-snd-cym-1;
#N canvas 633 38 388 273 hv.vline 0;
#X obj 12 12 inlet;
#X obj 69 116 unpack f f f;
#X obj 69 67 t a b;
#X msg 87 91 0;
#X text 120 92 Default to zero delay if 2 args supplied;
#X obj 12 225 outlet~;
#X obj 12 34 route stop;
#X msg 12 126 stop;
#X obj 12 56 t b b;
#X msg 25 94 clear;
#N canvas 274 138 360 214 dbl-pipe 0;
#X obj 65 42 inlet;
#X obj 125 42 inlet;
#X obj 185 42 inlet;
#X obj 65 84 pipe 0;
#X obj 125 84 pipe 0;
#X obj 65 106 outlet;
#X obj 125 106 outlet;
#X connect 0 0 3 0;
#X connect 0 0 4 0;
#X connect 1 0 4 0;
#X connect 2 0 3 1;
#X connect 2 0 4 1;
#X connect 3 0 5 0;
#X connect 4 0 6 0;
#X restore 69 144 pd dbl-pipe;
#X obj 69 168 pack f f;
#X obj 12 203 line~;
#X connect 0 0 6 0;
#X connect 1 0 10 0;
#X connect 1 1 10 1;
#X connect 1 2 10 2;
#X connect 2 0 1 0;
#X connect 2 1 3 0;
#X connect 3 0 10 2;
#X connect 6 0 8 0;
#X connect 6 1 2 0;
#X connect 7 0 12 0;
#X connect 8 0 7 0;
#X connect 8 1 9 0;
#X connect 9 0 10 0;
#X connect 9 0 10 1;
#X connect 10 0 11 0;
#X connect 10 1 11 1;
#X connect 11 0 12 0;
#X connect 12 0 5 0;
#X restore 458 702 pd hv.vline;
#X obj 205 663 pack f f f f;
#X msg 458 680 1 \$2 \, 0 \$4 \$3;
#X obj 583 707 * -15;
#X obj 583 685 sqrt;
#X obj 159 818 * 3.5;
#X obj 911 846 unpack f f f f f f;
#X obj 1056 622 loadbang;
#X msg 494 886 1000 \$1;
#X msg 554 886 1000 \$1;
#X msg 614 886 1000 \$1;
#X msg 674 886 1000 \$1;
#X msg 734 886 1000 \$1;
#X msg 794 886 1000 \$1;
#X obj 655 974 /~ 6;
#X obj 715 974 /~ 6;
#X obj 475 974 /~ 12;
#X obj 595 974 /~ 6;
#X obj 535 974 /~ 6;
#X obj 476 1100 outlet~;
#X obj 51 536 sel 0;
#X obj 51 558 t b f;
#X obj 51 580 s \$0-trg-cym;
#X obj 132 575 - 1;
#X obj 132 597 / 126;
#X obj 734 626 route attack decay noise highpass;
#X obj 734 780 clip 0 127;
#X obj 734 802 s \$0-snd-cym-0;
#X obj 782 736 clip 0 127;
#X obj 831 692 clip 0 127;
#X obj 782 758 s \$0-snd-cym-1;
#X obj 831 714 s \$0-snd-cym-2;
#X obj 880 648 clip 0 127;
#X obj 880 670 s \$0-snd-cym-3;
#X obj 964 820 inlet tuning;
#X obj 51 492 inlet trigger/velocity;
#X obj 734 604 inlet parameters;
#X text 494 866 //Hz to ms;
#X text 282 501 //ATTACK;
#X text 119 700 //LPF VEL;
#X text 458 660 //NOISE ENV;
#X text 639 672 //NOISE AMP;
#X text 51 921 //RESONANT LPF;
#X text 385 952 //COMB FILTERS;
#X text 846 783 //DECAY-FEEDBACK;
#X text 487 528 Miguel Moreno 2018;
#X text 51 472 //INLET 1: Trigger/Velocity;
#X text 734 584 //INLET 2: Parameters;
#X text 964 800 //INLET 3: Tuning;
#X text 487 543 Email: mianmogra94@gmail.com;
#X text 583 599 //AMP VEL -15–0 dB;
#X text 355 494 //DECAY 160–5120 ms;
#X text 282 516 //1–1000 ms;
#X text 215 682 //BURST ENV;
#X text 75 664 //HIGHPASS 500–8k Hz;
#X text 119 715 //1280–20k Hz;
#X text 334 683 //AMP VEL -9–0 dB;
#X text 639 687 //-100–-9 dB;
#X text 487 558 GitHub: github.com/MikeMorenoAudio;
#X text 717 513 Facebook: fb.com/MikeMorenoAudio;
#X text 717 528 Youtube: youtube.com/user/Lehjiot;
#X text 717 543 WordPress: mikemorenoaudio.wordpress.com;
#X text 717 558 PatchStorage: patchstorage.com/author/mianmogra;
#X text 487 508 COMB CYMBAL v1;
#X obj 946 587 loadbang;
#X msg 946 609 0 120 64 64;
#X obj 946 631 unpack f f f f;
#X obj 132 619 s \$0-vel-cym;
#X obj 51 514 clip 0 127;
#X obj 71 93 tgl 17 0 empty empty PLAY-RHYTHM 0 -8 0 10 -262144 -1
-1 1 1;
#X obj 71 137 i;
#X obj 71 159 % 16;
#X obj 111 137 + 1;
#X obj 98 249 + 5;
#X obj 98 227 random 4;
#X obj 71 288 *;
#X obj 71 310 % 16;
#X obj 71 332 <;
#X obj 98 271 t f f;
#X obj 71 354 sel 1;
#X obj 71 376 random 127;
#X obj 71 398 + 1;
#X obj 71 115 metro 200;
#X obj 71 181 t f f;
#X obj 98 205 sel 0;
#X obj 773 209 loadbang;
#X msg 646 252 attack 80;
#X msg 722 252 decay 93;
#X msg 793 252 noise 0;
#X msg 853 251 highpass 42;
#X floatatom 169 426 5 0 0 0 - - -, f 5;
#X obj 474 993 *~ 1;
#X obj 385 224 r contoursfromcpp;
#X text 27 34 //number of contours in image \, something like 0 - 100
;
#X text 27 34 //number of contours in image \, something like 0 - 100
;
#X text 280 177 //number of contours in image \, something like 0 -
100;
#X msg 273 279 attack \$1;
#X text 717 182 //initialize to nice value;
#X obj 274 256 expr max(80 -(2*$f1) \, 0);
#X obj 383 285 + 20;
#X msg 476 301 decay \$1;
#X msg 382 316 highpass \$1;
#X obj 154 57 loadbang;
#X obj 438 256 expr max(40 - $f1 \, 0) + 75;
#X msg 1061 736 210.2 320.09 379.973 539.95 549.5 799.957;
#X msg 1057 707 205.3 369.6 304.3 522.7 1149.9 627.2;
#X obj 1113 513 r pianotrigger;
#X obj 1112 537 bng 15 250 50 0 empty empty empty 17 7 0 10 -262144
-1 -1;
#X obj 1149 583 + 1;
#X obj 1113 560 f 0;
#X obj 1149 606 % 3;
#X obj 1149 629 route 0 1 2;
#X text 1029 472 //comes from piano_note_gen \, when a new chord is
triggered;
#X msg 1026 984 210.2 320.09 379.973 539.95 549.5 799.957;
#X msg 1010 959 205.3 369.6 304.3 522.7 1149.9 627.2;
#X msg 1036 681 420.2 250.7 317.8 475.9 521.43 745.321;
#X obj 842 962 r modechange;
#X msg 846 1021 bang;
#X obj 842 985 route 0 1 2 3;
#X obj 846 1051 tgl 15 0 empty empty empty 17 7 0 10 -262144 -1 -1
1 1;
#X obj 888 1021 loadbang;
#X obj 474 1023 *~ 1;
#X msg 846 1074 \$1 2000;
#X obj 846 1097 line 1;
#X connect 0 0 61 0;
#X connect 1 0 42 0;
#X connect 2 0 1 0;
#X connect 3 0 1 1;
#X connect 4 0 3 0;
#X connect 5 0 2 0;
#X connect 6 0 56 0;
#X connect 6 0 85 0;
#X connect 7 0 55 0;
#X connect 8 0 63 0;
#X connect 9 0 65 0;
#X connect 10 0 67 0;
#X connect 11 0 69 0;
#X connect 12 0 72 0;
#X connect 13 0 14 0;
#X connect 14 0 15 0;
#X connect 15 0 34 0;
#X connect 15 0 44 0;
#X connect 16 0 17 0;
#X connect 17 0 18 0;
#X connect 18 0 19 0;
#X connect 19 0 32 1;
#X connect 20 0 110 0;
#X connect 21 0 7 0;
#X connect 22 0 28 0;
#X connect 22 0 52 0;
#X connect 23 0 25 0;
#X connect 24 0 23 0;
#X connect 25 0 26 0;
#X connect 26 0 27 0;
#X connect 27 0 21 1;
#X connect 28 0 29 0;
#X connect 29 0 114 0;
#X connect 30 0 31 0;
#X connect 31 0 21 2;
#X connect 32 0 7 1;
#X connect 33 0 16 0;
#X connect 34 0 33 0;
#X connect 35 0 40 0;
#X connect 36 0 35 0;
#X connect 37 0 35 1;
#X connect 38 0 37 0;
#X connect 39 0 36 0;
#X connect 40 0 41 1;
#X connect 41 0 59 0;
#X connect 42 0 32 0;
#X connect 43 0 42 1;
#X connect 44 0 43 0;
#X connect 45 0 46 0;
#X connect 46 0 47 0;
#X connect 47 0 113 0;
#X connect 48 0 49 0;
#X connect 49 0 50 0;
#X connect 50 0 51 0;
#X connect 51 0 40 1;
#X connect 52 0 53 0;
#X connect 53 0 24 0;
#X connect 54 0 41 0;
#X connect 55 0 60 0;
#X connect 55 0 62 0;
#X connect 55 0 64 0;
#X connect 55 0 66 0;
#X connect 55 0 68 0;
#X connect 55 0 70 0;
#X connect 56 0 57 0;
#X connect 57 0 58 0;
#X connect 58 0 21 0;
#X connect 59 0 55 0;
#X connect 60 0 125 0;
#X connect 61 0 60 1;
#X connect 62 0 127 0;
#X connect 63 0 62 1;
#X connect 64 0 126 0;
#X connect 65 0 64 1;
#X connect 66 0 123 0;
#X connect 67 0 66 1;
#X connect 68 0 124 0;
#X connect 69 0 68 1;
#X connect 70 0 71 0;
#X connect 71 0 200 0;
#X connect 72 0 70 1;
#X connect 73 0 74 0;
#X connect 74 0 70 2;
#X connect 74 0 68 2;
#X connect 74 0 66 2;
#X connect 74 0 64 2;
#X connect 74 0 62 2;
#X connect 74 0 60 2;
#X connect 75 0 76 0;
#X connect 76 0 80 0;
#X connect 77 0 79 0;
#X connect 78 0 59 1;
#X connect 79 0 78 0;
#X connect 80 0 77 0;
#X connect 81 0 84 0;
#X connect 82 0 83 0;
#X connect 83 0 73 0;
#X connect 84 0 82 0;
#X connect 85 0 54 0;
#X connect 86 0 90 0;
#X connect 87 0 88 0;
#X connect 88 0 89 0;
#X connect 89 0 57 1;
#X connect 89 0 54 1;
#X connect 89 0 58 1;
#X connect 90 0 87 0;
#X connect 91 0 95 0;
#X connect 92 0 97 0;
#X connect 92 0 110 1;
#X connect 93 0 91 0;
#X connect 94 0 92 0;
#X connect 95 0 94 0;
#X connect 96 0 5 0;
#X connect 96 0 4 0;
#X connect 97 0 110 2;
#X connect 98 0 96 0;
#X connect 99 0 81 0;
#X connect 100 0 86 0;
#X connect 101 0 75 0;
#X connect 102 0 107 0;
#X connect 103 0 104 0;
#X connect 104 0 105 0;
#X connect 105 0 110 3;
#X connect 106 0 103 0;
#X connect 107 0 106 0;
#X connect 108 0 102 0;
#X connect 109 0 39 0;
#X connect 109 0 38 0;
#X connect 110 0 98 0;
#X connect 110 0 111 0;
#X connect 111 0 109 0;
#X connect 112 0 48 0;
#X connect 113 0 112 0;
#X connect 114 0 30 0;
#X connect 115 0 117 0;
#X connect 115 1 118 0;
#X connect 115 2 119 0;
#X connect 115 3 120 0;
#X connect 115 4 121 0;
#X connect 115 5 122 0;
#X connect 116 0 213 0;
#X connect 117 0 0 0;
#X connect 118 0 8 0;
#X connect 119 0 9 0;
#X connect 120 0 10 0;
#X connect 121 0 11 0;
#X connect 122 0 12 0;
#X connect 123 0 200 0;
#X connect 124 0 200 0;
#X connect 125 0 200 0;
#X connect 126 0 200 0;
#X connect 127 0 200 0;
#X connect 129 1 130 0;
#X connect 130 0 131 0;
#X connect 130 1 132 0;
#X connect 132 0 133 0;
#X connect 133 0 176 0;
#X connect 134 0 135 0;
#X connect 134 1 137 0;
#X connect 134 2 138 0;
#X connect 134 3 141 0;
#X connect 135 0 136 0;
#X connect 137 0 139 0;
#X connect 138 0 140 0;
#X connect 141 0 142 0;
#X connect 143 0 115 0;
#X connect 144 0 177 0;
#X connect 145 0 134 0;
#X connect 173 0 174 0;
#X connect 174 0 175 0;
#X connect 175 0 135 0;
#X connect 175 1 137 0;
#X connect 175 2 138 0;
#X connect 175 3 141 0;
#X connect 175 3 141 1;
#X connect 177 0 129 0;
#X connect 178 0 191 0;
#X connect 179 0 180 0;
#X connect 180 0 181 0;
#X connect 180 0 192 0;
#X connect 181 0 179 1;
#X connect 182 0 187 0;
#X connect 183 0 182 0;
#X connect 184 0 185 0;
#X connect 185 0 186 0;
#X connect 186 0 188 0;
#X connect 187 0 184 1;
#X connect 187 1 186 1;
#X connect 188 0 189 0;
#X connect 189 0 190 0;
#X connect 190 0 177 0;
#X connect 190 0 199 0;
#X connect 191 0 179 0;
#X connect 192 0 184 0;
#X connect 192 1 193 0;
#X connect 193 0 183 0;
#X connect 194 0 195 0;
#X connect 194 0 196 0;
#X connect 194 0 197 0;
#X connect 194 0 198 0;
#X connect 195 0 134 0;
#X connect 196 0 134 0;
#X connect 197 0 134 0;
#X connect 198 0 134 0;
#X connect 200 0 230 0;
#X connect 201 0 207 0;
#X connect 201 0 212 0;
#X connect 205 0 134 0;
#X connect 207 0 205 0;
#X connect 207 0 208 0;
#X connect 208 0 210 0;
#X connect 209 0 134 0;
#X connect 210 0 134 0;
#X connect 211 0 178 0;
#X connect 212 0 209 0;
#X connect 213 0 115 0;
#X connect 214 0 115 0;
#X connect 215 0 216 0;
#X connect 216 0 218 0;
#X connect 217 0 218 1;
#X connect 217 0 219 0;
#X connect 218 0 217 0;
#X connect 219 0 220 0;
#X connect 220 0 224 0;
#X connect 220 1 214 0;
#X connect 220 2 213 0;
#X connect 225 0 227 0;
#X connect 226 0 228 0;
#X connect 227 1 226 0;
#X connect 227 2 226 0;
#X connect 228 0 231 0;
#X connect 229 0 228 0;
#X connect 230 0 128 0;
#X connect 231 0 232 0;
#X connect 232 0 230 1;
