#N canvas 0 96 1920 984 10;
#X obj 494 908 /;
#X obj 205 790 +~;
#X obj 205 768 *~ 0.9;
#X obj 262 768 *~ 0.1;
#X obj 262 746 pow~ 1.85;
#X obj 205 746 pow~ 6.7;
#X obj 554 908 /;
#X obj 614 908 /;
#X obj 334 703 r \$0-vel-cym;
#X msg 334 725 1 \$1;
#X obj 334 747 -;
#X obj 334 813 + 100;
#X obj 334 835 dbtorms;
#X msg 334 857 \$1 1;
#X obj 334 879 line~;
#X obj 205 509 r \$0-trg-cym;
#X obj 79 685 r \$0-vel-cym;
#X obj 79 773 pow;
#X msg 79 751 2 \$1;
#X obj 79 795 * 40;
#X msg 79 817 \$1 1;
#X obj 79 839 line~;
#X obj 209 879 *~;
#X obj 334 791 * -9;
#X obj 334 769 pow 2;
#X obj 209 824 pow~;
#X obj 307 795 + 1;
#X obj 307 773 * 3;
#X obj 79 707 * 4;
#X obj 79 729 + 5;
#X obj 401 899 clip~ -1 1;
#N canvas 0 126 273 194 comb 0;
#X obj 12 11 inlet~;
#X obj 12 119 -~;
#X obj 12 146 outlet~;
#X obj 62 92 *~;
#X obj 148 75 clip~ 0 0.999;
#X obj 148 53 inlet~ feedback;
#X obj 148 26 block~ 1;
#X obj 62 65 vd~ \$0-del-1;
#X obj 62 11 inlet~ delay;
#X obj 78 136 delwrite~ \$0-del-1 100;
#X obj 62 38 min~ 100;
#X connect 0 0 1 0;
#X connect 1 0 2 0;
#X connect 1 0 9 0;
#X connect 3 0 1 1;
#X connect 4 0 3 1;
#X connect 5 0 4 0;
#X connect 7 0 3 0;
#X connect 8 0 10 0;
#X connect 10 0 7 0;
#X restore 485 951 pd comb;
#X obj 494 930 sig~;
#N canvas 0 22 273 194 comb 0;
#X obj 12 11 inlet~;
#X obj 12 119 -~;
#X obj 12 146 outlet~;
#X obj 62 92 *~;
#X obj 148 75 clip~ 0 0.999;
#X obj 148 53 inlet~ feedback;
#X obj 148 26 block~ 1;
#X obj 62 11 inlet~ delay;
#X obj 62 38 min~ 100;
#X obj 78 136 delwrite~ \$0-del-2 100;
#X obj 62 65 vd~ \$0-del-2;
#X connect 0 0 1 0;
#X connect 1 0 2 0;
#X connect 1 0 9 0;
#X connect 3 0 1 1;
#X connect 4 0 3 1;
#X connect 5 0 4 0;
#X connect 7 0 8 0;
#X connect 8 0 10 0;
#X connect 10 0 3 0;
#X restore 545 951 pd comb;
#X obj 554 930 sig~;
#N canvas 0 22 273 194 comb 0;
#X obj 12 11 inlet~;
#X obj 12 119 -~;
#X obj 12 146 outlet~;
#X obj 62 92 *~;
#X obj 148 75 clip~ 0 0.999;
#X obj 148 53 inlet~ feedback;
#X obj 148 26 block~ 1;
#X obj 62 11 inlet~ delay;
#X obj 62 38 min~ 100;
#X obj 78 136 delwrite~ \$0-del-3 100;
#X obj 62 65 vd~ \$0-del-3;
#X connect 0 0 1 0;
#X connect 1 0 2 0;
#X connect 1 0 9 0;
#X connect 3 0 1 1;
#X connect 4 0 3 1;
#X connect 5 0 4 0;
#X connect 7 0 8 0;
#X connect 8 0 10 0;
#X connect 10 0 3 0;
#X restore 605 951 pd comb;
#X obj 614 930 sig~;
#X msg 846 913 \$1 20;
#X obj 846 825 / 127;
#X obj 846 869 * 0.099;
#X obj 846 891 + 0.9;
#X obj 846 847 sqrt;
#X obj 262 553 / 127;
#X obj 262 619 pow;
#X obj 262 531 r \$0-snd-cym-0;
#X msg 262 597 10 \$1;
#X obj 262 575 * 3;
#X obj 262 641 + 2;
#X msg 205 702 1 \$2 \, 0 50 \$3;
#X obj 846 803 r \$0-snd-cym-1;
#X obj 355 536 / 127;
#X msg 355 602 2 \$1;
#X obj 355 624 pow;
#X obj 355 646 * 20;
#X obj 355 580 + 3;
#X obj 355 558 * 5;
#X obj 355 514 r \$0-snd-cym-1;
#X obj 205 663 pack f f f f;
#X obj 1056 622 loadbang;
#X msg 494 886 1000 \$1;
#X msg 554 886 1000 \$1;
#X obj 485 973 /~ 12;
#X obj 605 973 /~ 6;
#X obj 545 973 /~ 6;
#X obj 479 1676 outlet~;
#X obj 47 466 sel 0;
#X obj 47 488 t b f;
#X obj 24 542 s \$0-trg-cym;
#X obj 110 528 - 1;
#X obj 110 550 / 126;
#X obj 734 626 route attack decay noise highpass;
#X obj 734 780 clip 0 127;
#X obj 734 802 s \$0-snd-cym-0;
#X obj 782 736 clip 0 127;
#X obj 831 692 clip 0 127;
#X obj 782 758 s \$0-snd-cym-1;
#X obj 831 714 s \$0-snd-cym-2;
#X obj 880 648 clip 0 127;
#X obj 880 670 s \$0-snd-cym-3;
#X text 494 866 //Hz to ms;
#X text 282 501 //ATTACK;
#X text 79 655 //LPF VEL;
#X text 385 952 //COMB FILTERS;
#X text 846 783 //DECAY-FEEDBACK;
#X text 355 494 //DECAY 160–5120 ms;
#X text 282 516 //1–1000 ms;
#X text 215 682 //BURST ENV;
#X text 79 670 //1280–20k Hz;
#X text 334 683 //AMP VEL -9–0 dB;
#X text 717 513 Facebook: fb.com/MikeMorenoAudio;
#X text 717 528 Youtube: youtube.com/user/Lehjiot;
#X text 717 543 WordPress: mikemorenoaudio.wordpress.com;
#X text 717 558 PatchStorage: patchstorage.com/author/mianmogra;
#X obj 946 587 loadbang;
#X msg 946 609 0 120 64 64;
#X obj 946 631 unpack f f f f;
#X obj 110 572 s \$0-vel-cym;
#X obj 47 444 clip 0 127;
#X obj 71 93 tgl 17 0 empty empty PLAY-RHYTHM 0 -8 0 10 -262144 -1
-1 1 1;
#X obj 71 137 i;
#X obj 71 159 % 16;
#X obj 111 137 + 1;
#X obj 98 249 + 5;
#X obj 98 227 random 4;
#X obj 71 288 *;
#X obj 71 310 % 16;
#X obj 71 332 <;
#X obj 98 271 t f f;
#X obj 71 354 sel 1;
#X obj 71 376 random 127;
#X obj 71 398 + 1;
#X obj 71 115 metro 200;
#X obj 71 181 t f f;
#X obj 98 205 sel 0;
#X obj 773 209 loadbang;
#X msg 646 252 attack 80;
#X msg 722 252 decay 93;
#X msg 793 252 noise 0;
#X msg 853 251 highpass 42;
#X obj 474 998 *~ 1;
#X obj 385 224 r contoursfromcpp;
#X text 27 34 //number of contours in image \, something like 0 - 100
;
#X text 27 34 //number of contours in image \, something like 0 - 100
;
#X text 280 177 //number of contours in image \, something like 0 -
100;
#X msg 273 279 attack \$1;
#X text 717 182 //initialize to nice value;
#X obj 274 256 expr max(80 -(2*$f1) \, 0);
#X obj 383 285 + 20;
#X msg 476 301 decay \$1;
#X msg 382 316 highpass \$1;
#X obj 154 57 loadbang;
#X obj 438 256 expr max(40 - $f1 \, 0) + 75;
#X obj 1113 513 r pianotrigger;
#X obj 1112 537 bng 15 250 50 0 empty empty empty 17 7 0 10 -262144
-1 -1;
#X obj 1149 583 + 1;
#X obj 1113 560 f 0;
#X obj 1149 606 % 3;
#X obj 1149 629 route 0 1 2;
#X text 1029 472 //comes from piano_note_gen \, when a new chord is
triggered;
#X obj 842 962 r modechange;
#X msg 846 1021 bang;
#X obj 842 985 route 0 1 2 3;
#X obj 846 1051 tgl 15 0 empty empty empty 17 7 0 10 -262144 -1 -1
1 1;
#X obj 888 1021 loadbang;
#X obj 474 1023 *~ 1;
#X obj 846 1097 line 1;
#X msg 846 1074 \$1 4000;
#X obj 190 918 *~;
#N canvas 633 96 388 273 hv.vline 0;
#X obj 12 12 inlet;
#X obj 69 116 unpack f f f;
#X obj 69 67 t a b;
#X msg 87 91 0;
#X text 120 92 Default to zero delay if 2 args supplied;
#X obj 12 225 outlet~;
#X obj 12 34 route stop;
#X msg 12 126 stop;
#X obj 12 56 t b b;
#X msg 25 94 clear;
#N canvas 274 138 360 214 dbl-pipe 0;
#X obj 65 42 inlet;
#X obj 125 42 inlet;
#X obj 185 42 inlet;
#X obj 65 84 pipe 0;
#X obj 125 84 pipe 0;
#X obj 65 106 outlet;
#X obj 125 106 outlet;
#X connect 0 0 3 0;
#X connect 0 0 4 0;
#X connect 1 0 4 0;
#X connect 2 0 3 1;
#X connect 2 0 4 1;
#X connect 3 0 5 0;
#X connect 4 0 6 0;
#X restore 69 144 pd dbl-pipe;
#X obj 69 168 pack f f;
#X obj 12 203 line~;
#X connect 0 0 6 0;
#X connect 1 0 10 0;
#X connect 1 1 10 1;
#X connect 1 2 10 2;
#X connect 2 0 1 0;
#X connect 2 1 3 0;
#X connect 3 0 10 2;
#X connect 6 0 8 0;
#X connect 6 1 2 0;
#X connect 7 0 12 0;
#X connect 8 0 7 0;
#X connect 8 1 9 0;
#X connect 9 0 10 0;
#X connect 9 0 10 1;
#X connect 10 0 11 0;
#X connect 10 1 11 1;
#X connect 11 0 12 0;
#X connect 12 0 5 0;
#X restore 205 723 pd hv.vline;
#X obj 26 841 noise~;
#X obj 475 1073 *~ 16;
#X obj 475 1050 bandpass~ 8372;
#X floatatom 132 875 5 0 0 0 - - -, f 5;
#X obj 73 879 hip~;
#X obj 576 758 unpack f f f;
#X msg 613 886 1000 \$1;
#X obj 846 935 line~;
#X msg 1064 704 523.25 1318.51 3135.96;
#X msg 1036 680 523.25 1318.51 1046.5;
#X obj 534 1166 noise~;
#X obj 491 1163 abs~;
#X obj 512 1218 *~;
#X msg 1062 736 523.25 659.25 3961.07;
#X obj 515 1258 hip~ 4444;
#X connect 0 0 32 0;
#X connect 1 0 25 0;
#X connect 2 0 1 0;
#X connect 3 0 1 1;
#X connect 4 0 3 0;
#X connect 5 0 2 0;
#X connect 6 0 34 0;
#X connect 7 0 36 0;
#X connect 8 0 9 0;
#X connect 9 0 10 0;
#X connect 10 0 24 0;
#X connect 10 0 27 0;
#X connect 11 0 12 0;
#X connect 12 0 13 0;
#X connect 13 0 14 0;
#X connect 14 0 22 1;
#X connect 15 0 57 0;
#X connect 16 0 28 0;
#X connect 17 0 19 0;
#X connect 18 0 17 0;
#X connect 19 0 20 0;
#X connect 20 0 21 0;
#X connect 21 0 153 1;
#X connect 22 0 147 1;
#X connect 23 0 11 0;
#X connect 24 0 23 0;
#X connect 25 0 22 0;
#X connect 26 0 25 1;
#X connect 27 0 26 0;
#X connect 28 0 29 0;
#X connect 29 0 18 0;
#X connect 30 0 31 0;
#X connect 30 0 33 0;
#X connect 30 0 35 0;
#X connect 31 0 61 0;
#X connect 32 0 31 1;
#X connect 33 0 63 0;
#X connect 34 0 33 1;
#X connect 35 0 62 0;
#X connect 36 0 35 1;
#X connect 37 0 156 0;
#X connect 38 0 41 0;
#X connect 39 0 40 0;
#X connect 40 0 37 0;
#X connect 41 0 39 0;
#X connect 42 0 46 0;
#X connect 43 0 47 0;
#X connect 43 0 57 1;
#X connect 44 0 42 0;
#X connect 45 0 43 0;
#X connect 46 0 45 0;
#X connect 47 0 57 2;
#X connect 48 0 148 0;
#X connect 49 0 38 0;
#X connect 50 0 55 0;
#X connect 51 0 52 0;
#X connect 52 0 53 0;
#X connect 53 0 57 3;
#X connect 54 0 51 0;
#X connect 55 0 54 0;
#X connect 56 0 50 0;
#X connect 57 0 48 0;
#X connect 58 0 162 0;
#X connect 59 0 0 0;
#X connect 60 0 6 0;
#X connect 61 0 119 0;
#X connect 62 0 119 0;
#X connect 63 0 119 0;
#X connect 65 1 66 0;
#X connect 66 0 67 0;
#X connect 66 1 68 0;
#X connect 68 0 69 0;
#X connect 69 0 96 0;
#X connect 70 0 71 0;
#X connect 70 1 73 0;
#X connect 70 2 74 0;
#X connect 70 3 77 0;
#X connect 71 0 72 0;
#X connect 73 0 75 0;
#X connect 74 0 76 0;
#X connect 77 0 78 0;
#X connect 93 0 94 0;
#X connect 94 0 95 0;
#X connect 95 0 71 0;
#X connect 95 1 73 0;
#X connect 95 2 74 0;
#X connect 95 3 77 0;
#X connect 95 3 77 1;
#X connect 97 0 65 0;
#X connect 98 0 111 0;
#X connect 99 0 100 0;
#X connect 100 0 101 0;
#X connect 100 0 112 0;
#X connect 101 0 99 1;
#X connect 102 0 107 0;
#X connect 103 0 102 0;
#X connect 104 0 105 0;
#X connect 105 0 106 0;
#X connect 106 0 108 0;
#X connect 107 0 104 1;
#X connect 107 1 106 1;
#X connect 108 0 109 0;
#X connect 109 0 110 0;
#X connect 110 0 97 0;
#X connect 111 0 99 0;
#X connect 112 0 104 0;
#X connect 112 1 113 0;
#X connect 113 0 103 0;
#X connect 114 0 115 0;
#X connect 114 0 116 0;
#X connect 114 0 117 0;
#X connect 114 0 118 0;
#X connect 115 0 70 0;
#X connect 116 0 70 0;
#X connect 117 0 70 0;
#X connect 118 0 70 0;
#X connect 119 0 144 0;
#X connect 120 0 126 0;
#X connect 120 0 131 0;
#X connect 124 0 70 0;
#X connect 126 0 124 0;
#X connect 126 0 127 0;
#X connect 127 0 129 0;
#X connect 128 0 70 0;
#X connect 129 0 70 0;
#X connect 130 0 98 0;
#X connect 131 0 128 0;
#X connect 132 0 133 0;
#X connect 133 0 135 0;
#X connect 134 0 135 1;
#X connect 134 0 136 0;
#X connect 135 0 134 0;
#X connect 136 0 137 0;
#X connect 137 0 158 0;
#X connect 137 1 157 0;
#X connect 137 2 162 0;
#X connect 139 0 141 0;
#X connect 140 0 142 0;
#X connect 141 1 140 0;
#X connect 141 2 140 0;
#X connect 142 0 146 0;
#X connect 143 0 142 0;
#X connect 144 0 151 0;
#X connect 145 0 144 1;
#X connect 146 0 145 0;
#X connect 147 0 30 0;
#X connect 148 0 5 0;
#X connect 148 0 4 0;
#X connect 149 0 153 0;
#X connect 150 0 64 0;
#X connect 150 0 160 0;
#X connect 151 0 150 0;
#X connect 153 0 147 0;
#X connect 154 0 59 0;
#X connect 154 1 60 0;
#X connect 154 2 155 0;
#X connect 155 0 7 0;
#X connect 156 0 33 2;
#X connect 156 0 31 2;
#X connect 156 0 35 2;
#X connect 157 0 154 0;
#X connect 158 0 154 0;
#X connect 159 0 161 1;
#X connect 160 0 161 0;
#X connect 161 0 163 0;
#X connect 162 0 154 0;
#X connect 163 0 64 0;
