#N canvas 33 141 925 824 10;
#X msg 285 172 1000 \$1;
#X obj 308 201 /;
#X obj 333 337 vline~;
#X obj 117 309 delread~ \$0-del;
#X obj 285 699 outlet~;
#X obj 308 222 t f f;
#X obj 308 264 pack f f;
#X msg 313 298 1 \$1 \, 0 \$2 \$1;
#X obj 404 80 > 0;
#X obj 285 130 pipe 2;
#X obj 436 168 sel 1;
#X msg 509 526 1 0;
#X msg 475 575 0 1;
#X obj 308 243 * 8;
#X obj 285 514 biquad~ 0 0 0.5 0.5 0;
#X obj 117 330 *~ 0.995;
#X obj 285 474 lop~ 3000;
#X obj 353 243 * 2;
#X obj 333 358 pow~ 2;
#X obj 288 590 *~;
#X obj 399 38 inlet;
#X obj 279 46 inlet;
#X obj 399 59 t f f;
#X obj 279 67 list prepend;
#X obj 300 102 route 1;
#X obj 352 641 delwrite~ \$0-del 100;
#X obj 352 615 hip~ 4;
#X obj 512 486 del 2;
#X obj 439 607 line~;
#X obj 375 705 env~;
#X floatatom 375 728 5 0 0 0 - - -, f 5;
#X floatatom 580 111 5 0 0 0 - - -, f 5;
#X connect 0 0 1 0;
#X connect 1 0 3 0;
#X connect 1 0 5 0;
#X connect 2 0 18 0;
#X connect 3 0 15 0;
#X connect 5 0 13 0;
#X connect 5 1 17 0;
#X connect 6 0 7 0;
#X connect 7 0 2 0;
#X connect 8 0 10 0;
#X connect 8 0 23 1;
#X connect 8 0 31 0;
#X connect 9 0 0 0;
#X connect 9 0 16 0;
#X connect 10 0 12 0;
#X connect 10 0 27 0;
#X connect 11 0 28 0;
#X connect 12 0 28 0;
#X connect 13 0 6 0;
#X connect 14 0 19 0;
#X connect 14 0 26 0;
#X connect 15 0 14 0;
#X connect 16 0 14 0;
#X connect 17 0 6 1;
#X connect 18 0 16 0;
#X connect 19 0 4 0;
#X connect 20 0 22 0;
#X connect 21 0 23 0;
#X connect 22 0 8 0;
#X connect 23 0 24 0;
#X connect 24 0 9 0;
#X connect 26 0 25 0;
#X connect 27 0 11 0;
#X connect 28 0 19 1;
#X connect 29 0 30 0;
