#N canvas 760 96 960 984 10;
#X obj 4 267 readsf~;
#X obj 72 293 readsf~;
#X obj 142 319 readsf~;
#X obj 210 345 readsf~;
#X msg 51 96 \$1 100;
#X obj 277 391 readsf~;
#X obj 345 417 readsf~;
#X obj 415 443 readsf~;
#X obj 376 309 readsf~;
#X obj 439 337 readsf~;
#X obj 507 363 readsf~;
#X obj 577 389 readsf~;
#X obj 645 415 readsf~;
#X obj 713 453 readsf~;
#X obj 781 479 readsf~;
#X obj 48 19 inlet notes;
#X text 126 17 //note numbers 1-14;
#X obj 318 843 outlet~ pianosound;
#X obj 50 180 pack f f f;
#X obj 48 145 poly 14 1;
#X text 328 63 //by Sam Cardoza 2019 //based on something from borkganelle
by this guy: //https://patchstorage.com/borkganelle/ //Thanks \, borkganelle
guy.;
#X msg 3 240 open samples/\$1.wav \, 1;
#X msg 72 266 open samples/\$1.wav \, 1;
#X msg 142 292 open samples/\$1.wav \, 1;
#X msg 210 318 open samples/\$1.wav \, 1;
#X msg 277 364 open samples/\$1.wav \, 1;
#X msg 345 390 open samples/\$1.wav \, 1;
#X msg 415 416 open samples/\$1.wav \, 1;
#X msg 376 282 open samples/\$1.wav \, 1;
#X msg 438 310 open samples/\$1.wav \, 1;
#X msg 509 336 open samples/\$1.wav \, 1;
#X msg 575 363 open samples/\$1.wav \, 1;
#X msg 142 292 open samples/\$1.wav \, 1;
#X msg 713 426 open samples/\$1.wav \, 1;
#X msg 781 452 open samples/\$1.wav \, 1;
#X msg 645 388 open samples/\$1.wav \, 1;
#X obj 216 203 route 1 2 3 4 5 6 7 8 9 10 11 12 13 14;
#X text 331 132 //Piano sounds are from this guy: https://freesound.org/people/TEDAgame/
;
#X obj 366 636 r modechange;
#X msg 370 695 bang;
#X obj 366 659 route 0 1 2 3;
#X obj 370 725 tgl 15 0 empty empty empty 17 7 0 10 -262144 -1 -1 1
1;
#X obj 412 695 loadbang;
#X obj 319 809 *~ 1;
#X msg 370 748 \$1 2000;
#X obj 370 771 line 1;
#X connect 0 0 43 0;
#X connect 1 0 43 0;
#X connect 2 0 43 0;
#X connect 3 0 43 0;
#X connect 4 0 19 0;
#X connect 5 0 43 0;
#X connect 6 0 43 0;
#X connect 7 0 43 0;
#X connect 8 0 43 0;
#X connect 9 0 43 0;
#X connect 10 0 43 0;
#X connect 11 0 43 0;
#X connect 12 0 43 0;
#X connect 13 0 43 0;
#X connect 14 0 43 0;
#X connect 15 0 4 0;
#X connect 18 0 36 0;
#X connect 19 0 18 0;
#X connect 19 1 18 1;
#X connect 19 2 18 2;
#X connect 21 0 0 0;
#X connect 22 0 1 0;
#X connect 23 0 2 0;
#X connect 24 0 3 0;
#X connect 25 0 5 0;
#X connect 26 0 6 0;
#X connect 27 0 7 0;
#X connect 28 0 8 0;
#X connect 29 0 9 0;
#X connect 30 0 10 0;
#X connect 31 0 11 0;
#X connect 33 0 13 0;
#X connect 34 0 14 0;
#X connect 35 0 12 0;
#X connect 36 0 21 0;
#X connect 36 1 22 0;
#X connect 36 2 23 0;
#X connect 36 3 24 0;
#X connect 36 4 25 0;
#X connect 36 5 26 0;
#X connect 36 6 27 0;
#X connect 36 7 28 0;
#X connect 36 8 29 0;
#X connect 36 9 30 0;
#X connect 36 10 31 0;
#X connect 36 11 35 0;
#X connect 36 12 33 0;
#X connect 36 13 34 0;
#X connect 38 0 40 0;
#X connect 39 0 41 0;
#X connect 40 1 39 0;
#X connect 40 2 39 0;
#X connect 40 3 39 0;
#X connect 41 0 44 0;
#X connect 42 0 41 0;
#X connect 43 0 17 0;
#X connect 44 0 45 0;
#X connect 45 0 43 1;
