#N canvas 31 142 1020 868 10;
#X obj 172 84 loadbang;
#X obj 172 126 array set \$0-scale;
#X obj 172 147 array define \$0-scale;
#X obj 12 581 /~ 2;
#X obj 10 205 unpack f f;
#X obj 10 268 % 5;
#X obj 10 289 tabread \$0-scale;
#X obj 10 327 +;
#X obj 128 269 div 5;
#X obj 128 290 * 12;
#X obj 10 247 t f f;
#X obj 107 408 pack f f f;
#X obj 107 429 s \$0-poly;
#X obj 12 476 r \$0-poly;
#X obj 12 497 route 1;
#X obj 10 226 + 5;
#X msg 172 105 0 2 5 7 9;
#X obj 92 539 mtof;
#X obj 92 581 /~ 2;
#X obj 92 476 r \$0-poly;
#X obj 92 518 unpack f f;
#X obj 92 497 route 2;
#X obj 12 81 tgl 17 0 empty empty PLAY_SCALE 20 8 0 10 -262144 -1 -1
1 1;
#X obj 11 136 random 15;
#X obj 11 157 + 15;
#X obj 12 560 harp~;
#X obj 12 539 mtof;
#X obj 12 518 unpack f f;
#X obj 92 560 harp~;
#X obj 12 602 throw~ \$0-M;
#X obj 92 602 throw~ \$0-M;
#X obj 88 670 catch~ \$0-M;
#X obj 10 48 inlet;
#X obj 82 738 outlet~;
#X text 376 55 //heavily taken from Mike Moreno's harp~ //see github.com/MikeMorenoAudio
;
#X obj 172 539 mtof;
#X obj 172 581 /~ 2;
#X obj 172 476 r \$0-poly;
#X obj 172 518 unpack f f;
#X obj 172 497 route 3;
#X obj 172 560 harp~;
#X obj 172 602 throw~ \$0-M;
#X obj 107 387 poly 3 1;
#X obj 11 115 metro 250;
#X msg 11 180 \$1 10;
#X obj 80 703 hip~ 250;
#X connect 0 0 16 0;
#X connect 3 0 29 0;
#X connect 4 0 15 0;
#X connect 4 1 42 1;
#X connect 5 0 6 0;
#X connect 6 0 7 0;
#X connect 7 0 42 0;
#X connect 8 0 9 0;
#X connect 9 0 7 1;
#X connect 10 0 5 0;
#X connect 10 1 8 0;
#X connect 11 0 12 0;
#X connect 13 0 14 0;
#X connect 14 0 27 0;
#X connect 15 0 10 0;
#X connect 16 0 1 0;
#X connect 17 0 28 0;
#X connect 18 0 30 0;
#X connect 19 0 21 0;
#X connect 20 0 17 0;
#X connect 20 1 28 1;
#X connect 21 0 20 0;
#X connect 22 0 43 0;
#X connect 23 0 24 0;
#X connect 24 0 44 0;
#X connect 25 0 3 0;
#X connect 26 0 25 0;
#X connect 27 0 26 0;
#X connect 27 1 25 1;
#X connect 28 0 18 0;
#X connect 31 0 45 0;
#X connect 32 0 22 0;
#X connect 35 0 40 0;
#X connect 36 0 41 0;
#X connect 37 0 39 0;
#X connect 38 0 35 0;
#X connect 38 1 40 1;
#X connect 39 0 38 0;
#X connect 40 0 36 0;
#X connect 42 0 11 0;
#X connect 42 1 11 1;
#X connect 42 2 11 2;
#X connect 43 0 23 0;
#X connect 44 0 4 0;
#X connect 45 0 33 0;
#X coords 0 868 1 867 100 100 0;
