#N canvas 560 337 450 300 10;
#X obj 97 129 phasor~;
#X obj 99 183 *~ 2;
#X obj 98 207 -~ 1;
#X obj 288 116 line~;
#X obj 288 93 pack f 50;
#X obj 98 241 outlet~;
#X obj 200 60 inlet phase;
#X obj 289 63 inlet pwm;
#X obj 98 160 expr~ $v1 > $v2;
#X obj 97 58 inlet freq;
#X floatatom 200 83 5 0 0 0 - - -, f 5;
#X connect 0 0 8 0;
#X connect 1 0 2 0;
#X connect 2 0 5 0;
#X connect 3 0 8 1;
#X connect 4 0 3 0;
#X connect 6 0 10 0;
#X connect 7 0 4 0;
#X connect 8 0 1 0;
#X connect 9 0 0 0;
#X connect 10 0 0 1;
