#N canvas 0 96 1920 984 10;
#X obj 395 236 harp~-help;
#X obj 396 209 bng 15 250 50 0 empty empty empty 17 7 0 10 -262144
-1 -1;
#X obj 394 73 r pianotrigger;
#X obj 420 178 delay 1300;
#X msg 394 96 bang;
#X obj 393 271 *~ 4;
#X obj 393 123 delay 999;
#X obj 391 147 delay 999;
#X text 472 132 //use 2 delays to avoid getting triggered twice within
1 second;
#X text 286 154 //turn on;
#X text 505 184 //turn off;
#X obj 304 361 delwrite~ harp_delay 1600;
#X obj 427 445 *~ 0.6;
#X obj 504 371 line 2000;
#X msg 576 288 set 2000;
#X msg 496 296 0 5000;
#X obj 426 410 delread~ harp_delay 1600;
#X obj 606 480 r modechange;
#X msg 610 539 bang;
#X obj 606 503 route 0 1 2 3;
#X obj 610 569 tgl 15 0 empty empty empty 17 7 0 10 -262144 -1 -1 1
1;
#X obj 698 537 loadbang;
#X obj 436 660 *~ 1;
#X obj 610 615 line 1;
#X msg 610 592 \$1 4000;
#N canvas 0 96 1920 984 pitchshifter 0;
#X obj 74 79 biquad~ 0.83774 -0.06338 0.06338 -0.83774 1;
#X obj 74 53 biquad~ 1.94632 -0.94657 0.94657 -1.94632 1;
#X obj 55 136 biquad~ -0.02569 0.260502 -0.260502 0.02569 1;
#X obj 55 162 biquad~ 1.8685 -0.870686 0.870686 -1.8685 1;
#X obj 55 26 inlet~;
#X obj 471 26 inlet;
#X text 430 0 bang to clear;
#X text 49 3 signal in;
#X msg 471 99 clear;
#X obj 277 569 cos~;
#X obj 313 547 +~ -0.25;
#X obj 313 569 cos~;
#X obj 74 642 *~;
#X obj 157 643 *~;
#X obj 74 678 -~;
#X obj 152 791 outlet~;
#X obj 222 792 outlet~;
#X obj 144 679 +~;
#X text 150 817 positive;
#X text 223 818 negative;
#X obj 277 517 phasor~;
#X obj 297 384 r huesecondmaxfromcpp;
#X obj 190 389 r huemaxfromcpp;
#X obj 436 394 r huethirdmaxfromcpp;
#X obj 305 220 loadbang;
#X obj 307 275 f 0;
#X obj 320 296 expr ($f1 + 1) % 3;
#X obj 190 419 f;
#X obj 295 412 f;
#X obj 436 422 f;
#X obj 307 339 sel 0 1 2;
#X obj 276 463 - 70;
#X text 612 399 //arpeggiate different pitches based on hues;
#X obj 305 243 metro 62.5;
#X obj 276 486 * 3;
#X connect 0 0 13 0;
#X connect 1 0 0 0;
#X connect 2 0 3 0;
#X connect 3 0 12 0;
#X connect 4 0 1 0;
#X connect 4 0 2 0;
#X connect 4 0 15 0;
#X connect 4 0 16 0;
#X connect 5 0 8 0;
#X connect 8 0 1 0;
#X connect 8 0 0 0;
#X connect 8 0 2 0;
#X connect 8 0 3 0;
#X connect 9 0 12 1;
#X connect 10 0 11 0;
#X connect 11 0 13 1;
#X connect 12 0 14 0;
#X connect 12 0 17 0;
#X connect 13 0 14 1;
#X connect 13 0 17 1;
#X connect 14 0 15 0;
#X connect 17 0 16 0;
#X connect 20 0 10 0;
#X connect 20 0 9 0;
#X connect 21 0 28 1;
#X connect 22 0 27 1;
#X connect 23 0 29 1;
#X connect 24 0 33 0;
#X connect 25 0 26 0;
#X connect 25 0 30 0;
#X connect 26 0 25 1;
#X connect 27 0 31 0;
#X connect 28 0 31 0;
#X connect 29 0 31 0;
#X connect 30 0 27 0;
#X connect 30 1 28 0;
#X connect 30 2 29 0;
#X connect 31 0 34 0;
#X connect 33 0 25 0;
#X connect 34 0 20 0;
#X restore 434 523 pd pitchshifter;
#X text 704 514 //mode change stuff;
#X obj 449 568 lpf~;
#X obj 434 708 dac~ 1;
#X obj 864 326 loadbang;
#X msg 864 349 \; pd dsp 1;
#X text 55 505 //@@@maybe add FM synthesis to change frequency of harp
based on hues?;
#X connect 0 0 5 0;
#X connect 1 0 0 0;
#X connect 2 0 4 0;
#X connect 3 0 1 0;
#X connect 4 0 6 0;
#X connect 4 0 14 0;
#X connect 5 0 11 0;
#X connect 5 0 22 0;
#X connect 6 0 7 0;
#X connect 7 0 1 0;
#X connect 7 0 3 0;
#X connect 7 0 15 0;
#X connect 12 0 11 0;
#X connect 12 0 25 0;
#X connect 13 0 27 1;
#X connect 14 0 13 0;
#X connect 15 0 13 0;
#X connect 16 0 12 0;
#X connect 17 0 19 0;
#X connect 18 0 20 0;
#X connect 19 0 18 0;
#X connect 19 1 18 0;
#X connect 19 2 18 0;
#X connect 19 3 18 0;
#X connect 20 0 24 0;
#X connect 21 0 20 0;
#X connect 22 0 28 0;
#X connect 23 0 22 1;
#X connect 24 0 23 0;
#X connect 25 0 27 0;
#X connect 25 1 27 0;
#X connect 27 0 22 0;
#X connect 29 0 30 0;
